<?xml version="1.0" encoding="UTF-8"?>
<svg id="Layer_1" data-name="Layer 1" xmlns="http://www.w3.org/2000/svg" xmlns:xlink="http://www.w3.org/1999/xlink" viewBox="0 0 996.39 1066.42">
  <defs>
    <style>
      .cls-1, .cls-2 {
        fill: #fff;
      }

      .cls-3 {
        fill: #dbdbdb;
      }

      .cls-4 {
        stroke: #202020;
        stroke-miterlimit: 10;
        stroke-width: 7px;
      }

      .cls-4, .cls-5 {
        fill: none;
      }

      .cls-2 {
        font-family: Dubai-Regular, Dubai;
        font-size: 371px;
      }

      .cls-6 {
        letter-spacing: -.02em;
      }

      .cls-7 {
        clip-path: url(#clippath);
      }

      .cls-8 {
        fill: #373737;
      }

      .cls-9 {
        fill: #c6c6c6;
      }

      .cls-10 {
        fill: #838383;
      }

      .cls-11 {
        fill: #686868;
      }
    </style>
    <clipPath id="clippath">
      <path class="cls-5" d="M1176.8,472.23c-19.14-28.57-43.45-60.17-77.81-61.4-37.52-1.34-68.64,35.16-106.14,33.46-13.42-.61-26.45-6.2-39.84-5.19-10.08,.76-19.46,5.19-28.83,8.97-39.92,16.13-84.15,21.45-126.76,15.24-20.14-2.93-39.84-8.37-59.25-14.5-62.81-19.84-126.49-49.68-163.43-104.21-10.24-15.12-19.3-32.84-36.03-40.16-25.7-11.24-55.58,7.69-83.05,2.01-27.42-5.67-46.28-34.52-74.09-37.8-26.58-3.14-49,17.86-69.68,34.84-20.69,16.98-51.09,31.37-72.75,15.64-4.78-3.47-8.59-8.14-13.35-11.64-23.59-17.29-56.11,.61-79.5,18.18-25.23,18.95-50.45,37.9-75.68,56.84-5.82,4.37-12.11,8.92-19.38,9.29-17.12,.88-26.05-19.91-40.29-29.46-15.73-10.54-37.16-6.24-54.15,2.12-16.99,8.37-32.39,20.43-50.68,25.34-22.64,6.08-50.65,2.03-65.8,19.91-6.93,8.18-9.24,19.19-11.32,29.7-18.75,94.91-37.59,190.8-34.55,287.5,3.04,96.69,29.96,195.68,93.09,268.98,11.79,13.69,25.01,26.58,41.06,34.9,20.19,10.47,43.44,13.03,66.11,14.88,158.77,12.94,318.51-.33,476.69-19.2,66.48-7.93,133.35-16.87,200.15-12.35,58.32,3.94,115.42,18.07,173.27,26.45,124.76,18.09,253.37,9.12,374.42-26.11,9.44-2.75,19.14-5.82,26.52-12.3,9.09-7.98,13.43-20.02,16.3-31.77,17.63-72.29-7.45-147.08-22.39-219.98-7.97-38.88-13.06-78.36-15.24-117.99-1.09-19.82-1.45-39.67-1.09-59.52,.17-8.99,1.9-18.96,.57-27.86-.9-6.02-5.39-10.63-8.69-15.51-12.89-19.05-25.6-38.22-38.41-57.33Z"/>
    </clipPath>
  </defs>
  <rect class="cls-1" x="-150.75" y="831.15" width="1369.53" height="362.22"/>
  <g>
    <g class="cls-7">
      <rect class="cls-9" x="-132.07" y="49.96" width="1329.8" height="735.64"/>
    </g>
    <path class="cls-10" d="M59.81,409.44c19.15,13.77,42.18,20.77,64.41,28.67,52.86,18.77,103.29,43.69,153.57,68.54,.28-2.91,.57-5.82,.85-8.72,3.29-1.06,6.58-2.13,9.87-3.19-10.42-16.4-18.08-34.55-22.58-53.46,7.11-6.83,19.25-5.49,27.24,.29,7.99,5.78,12.82,14.85,17.38,23.6,9.41,18.05,18.82,36.11,28.23,54.16,7.21,13.84,14.53,27.98,17.06,43.37-5.2-3.4-11.15-5.45-17.08-7.3-30.32-9.49-61.76-14.91-92.44-23.18-16.4-4.42-32.59-9.66-48.47-15.69-1.06,3.94-2.12,7.88-3.19,11.82-9.24-3.22-10.72-16.33-18.78-21.88-14.02-9.66-31.87,10.07-48.69,7.44-8.89-1.39-15.46-8.75-21.19-15.68-28.83-34.86-56.51-70.67-82.98-107.35"/>
    <path class="cls-10" d="M636.95,629.79c-8.2-5.05-18.14-8.86-22.46-17.46-1.59-3.17-2.26-6.78-4.14-9.79-7.04-11.3-23.86-7.43-37.1-6.05-51.74,5.37-92.86-49.09-144.81-51.81-12.68-.66-27.76,.89-35.61-9.09,5.51,21.69,21.5,40.46,42.03,49.34,9.68,4.19,20.29,6.31,29.33,11.74,8.1,4.87,14.49,12.14,22.27,17.51,9.21,6.36,20.06,9.83,30.72,13.23,17.82,5.67,35.65,11.35,53.47,17.02,14.4,4.58,28.47,7.98,43.66,6.75,5.46-.44,10.8-.65,16.27-.07,4.2,.44,8.36,1.23,12.56,1.7,1.69,.19,4.81,1.04,5.95-.11,.87-.87,.84-3.79,.8-4.91-.28-7.65-6.83-14.22-12.95-17.99Z"/>
    <path class="cls-10" d="M1001.54,604.52c-3.39-1.74-6.9-3.57-9.22-6.6-7.59-9.92,1.85-24.92-2.72-36.55-5.88-14.97-30.95-15.89-34.7-31.53,5.38,1.4,10.75,2.81,16.13,4.21,11.79,3.08,26.04,5.56,34.71-3,9.48-9.36,5.7-25.15,1.27-37.71,16.37,11.96,30.3,27.23,40.7,44.63,.34,1.63,.67,3.26,1.01,4.89-6.85,.38-9.42,10.29-5.68,16.04,3.75,5.75,10.81,8.18,17.3,10.39,11.94,4.06,25.82,11.53,25.77,24.15-.01,2.86-1.09,6.04-3.68,7.23-5.74,2.65-10.63-5.06-15.94-5.8-8.45-1.18-2.36,11.57-3.41,16.21-2.87,12.66-23.41,5.07-31.49,3.51-10.78-2.08-20.22-5.02-30.05-10.06Z"/>
    <path class="cls-5" d="M917.9,495.46c-8.95-.24-18.58-4.24-22.2-12.42-.44-1-.79-2.08-.7-3.16,.38-4.4,6.42-4.96,10.73-5.92,12.59-2.81,19.21-18.53,31.88-20.95,6-1.14,12.08,1,17.8,3.12,7.4,2.73,14.8,5.46,22.2,8.19,10.4,3.84,33.06,11.57,31.72,26.18-9.84-.38-19.61-.75-29.48-.39-12.63,.45-25.35-.37-37.84,1.9-7.98,1.45-15.93,3.68-24.11,3.46Z"/>
    <path class="cls-10" d="M237.22,373.69c.18,8.07-2.15,16.18-6.58,22.93-4.87,7.41-12.31,13.44-14.61,22-.69,2.56-.88,5.25-1.8,7.73-2.53,6.81-11.08,10.66-17.87,8.05-2.53-5.09,1.93-10.64,5.32-15.2,5.73-7.72,9.06-17.19,9.42-26.79-7.5-2.67-16.73,1.5-19.7,8.88-1.69-9.16,8.23-15.65,13.78-23.14,3.54-4.78,5.43-10.56,8.3-15.77,2.57-4.67,6.42-9.33,11.74-10.85,6.03-1.72,13.91,.81,19.96,1.84,6.79,1.16,19.87,9.35,7.51,13.2-2.57,.8-15.56,3.1-15.47,7.11Z"/>
    <path class="cls-10" d="M375.8,406.71c-11.86-7.26-23.55-14.79-35.07-22.58-2.03,1.19-.47,4.2-.07,6.51,.76,4.36-4.22,8.1-8.6,7.44-4.37-.66-7.72-4.34-9.71-8.29-1.47-2.91-2.42-6.18-2.12-9.43,.63-6.84,6.48-12.06,8.42-18.65,1.28-4.31,.82-9.04,2.41-13.25,3.37-8.93,13.8-12.37,17.86-20.9,2.38-5.02,.55-8.99-.09-13.99,2.91,7.03,4.45,14.94,6.58,22.24,3.89,13.32,8.12,26.46,12.71,39.55,3.56,10.15,6.9,20.53,7.68,31.33Z"/>
    <path class="cls-10" d="M675.69,531.26c-2.11-2.58-4.25-5.19-5.75-8.17-4.74-9.36-2.61-20.57-.37-30.83,3.94-.87,7.23-4.2,8.04-8.16,.5,13.81,6.68,27.34,16.79,36.76,5.27,4.91,11.68,8.92,15.15,15.23,2.34,4.27,3.09,9.19,3.81,14,.91,6.12,1.82,12.24,2.73,18.35,.45,3.02,1.97,14.44-3.44,7.93-8.04-9.66-15.92-19.45-23.88-29.18-4.34-5.3-8.48-10.87-13.07-15.96Z"/>
    <path class="cls-10" d="M452.55,405.42c2.25-6.45,4.53-13.29,3.14-19.97-.5-2.38-1.55-4.78-3.51-6.22-1.96-1.44-4.98-1.62-6.7,.1-1.81,1.8-1.59,4.71-1.97,7.24-1.21,8.05-9.05,13.06-15.64,17.85-2.27,1.65-4.58,3.55-5.43,6.22-.84,2.67,.56,6.21,3.34,6.57,3.06,.4,5.14-2.86,6.93-5.37,1.79-2.52,5.68-4.68,7.64-2.29-.23,5.72-.45,11.45-.68,17.17-.1,2.46-1.81,9.8,2.02,6.29,3.02-2.76,4.04-8.07,5.32-11.72,1.8-5.14,3.11-10.99,5.54-15.86Z"/>
    <path class="cls-10" d="M387.47,474.97c-2.6-11.64,16.48-20.76,12.35-31.95-2.98-2.26-6.07,2.43-8.54,5.23-1.32,1.5-3.04,2.59-4.52,3.93-6.12,5.59-6.99,16.01-1.88,22.53"/>
    <path class="cls-10" d="M563.95,440.26c-.5,5.12-.13,10.35-1.29,15.36-1.21,5.2-4.1,10-8.13,13.49-.78,.68-1.71,1.34-2.74,1.28-.82-.05-1.54-.55-2.29-.9-5.13-2.41-10.94,2.51-12.94,7.81-2,5.3-2.02,11.32-4.81,16.26-1.85,3.27-4.96,6.75-3.51,10.21,1.87,4.45,8.95,3.35,12.3,6.82,1.66,1.72,2.11,4.29,3.57,6.19,1.45,1.9,5.04,2.55,5.86,.3,.44-1.21-.23-2.61,.21-3.82,.43-1.2,1.76-1.77,2.76-2.57,5.09-4.08,.82-12.07,.64-18.59-.03-1.03,.11-2.16,.85-2.87,.88-.84,2.25-.77,3.47-.85,12.36-.8,16.29-19.64,28.38-22.33,6.62-1.47,14.58,2.29,19.81-2.03,4.73-3.91,4.25-12.56,9.84-15.1-5.03-2.04-10.94-1.81-15.8,.6-3.01,1.49-6.64,3.77-9.34,1.78-6.39-4.69,2.13-17.76-2.42-24.01-4.01-5.51-15.27-3.75-19.46,.43-3.3,3.3-4.43,8.07-4.95,12.55Z"/>
    <path class="cls-10" d="M190.6,550.17c2.81,.34,5.66,.22,8.46,.65,5.74,.88,10.97,3.99,16.07,7.05,2.64,1.58,5.31,3.19,7.53,5.44,3.17,3.21,5.22,7.52,7.21,11.74,2.59,5.49,5.18,10.97,7.77,16.46-2.81-4.84-8.44-6.63-13.62-6.78-5.18-.16-10.39,.93-15.52,.17-5.49-.82-10.55-3.69-15.29-6.87-18.19-12.19-33.54-29.56-44.16-49.99,.24,.46,4.42,.74,5.1,.91,1.78,.45,3.53,1.03,5.23,1.74,2.81,1.17,5.65,2.65,8.16,4.48,1.87,1.36,3.31,3.23,4.87,4.98,2.28,2.57,4.85,4.76,7.73,6.44,3.25,1.9,6.82,3.15,10.47,3.58Z"/>
    <path class="cls-10" d="M819.49,639.88c-7.35-6.46-13.96-13.75-19.67-21.69,1.18,2.92-.62,6.28-3.05,8.28-2.44,2-5.46,3.15-8.01,5.01-7.97,5.84-8.95,19.08-1.92,26.03,4.28,4.23,10.43,5.91,16.35,6.98,.8,.14,1.62,.28,2.41,.09,3.21-.78,2.92-5.31,3.09-8.61,.21-3.92,2.69-8.01,6.55-8.74,1.41-.27,2.88-.08,4.25-.49,3.98-1.19,4.29-7.97,.43-9.52"/>
    <path class="cls-10" d="M865.69,633.67c-7.89-7.2-13.46-16.89-15.73-27.33-.57-2.64-.97-5.4-2.37-7.72-1.4-2.32-4.16-4.09-6.76-3.36-4.65,1.3-4.28,7.99-2.78,12.58,2.43,7.41,5.13,14.72,8.1,21.93,1.31,3.18,2.79,6.49,5.58,8.5,2.79,2.01,7.28,2.07,9.21-.78,1.19-1.76,2.86-4.75,4.38-3.27"/>
    <path class="cls-4" d="M237.89,631.19c-46.25-36.54-89.58-76.78-129.44-120.22-42.18-45.96-80.41-95.42-116.51-146.29"/>
    <path class="cls-3" d="M540.94,340.71c1.33-1.75,2.69-3.55,3.32-5.66,1.26-4.18-.6-8.74-3.39-12.09-5.38-6.47-13.95-9.61-22.34-10.2-8.4-.59-16.77,1.08-25.02,2.74-7.19,1.45-15.33,3.58-18.68,10.11-1.58,3.08-1.79,6.65-1.97,10.1-.69,13.34-1.38,26.67-2.06,40.01-.36,6.93-.73,13.94-2.65,20.61-1.94,6.7-5.4,12.9-7.21,19.64-1.59,5.93-2.16,15.25,2.96,19.78,6.47-5.06,12.31-11.88,17.94-17.9,3.43-3.68,6.64-7.53,9.64-11.56,9.8-13.13,19.6-26.25,29.51-39.29,6.65-8.76,13.31-17.52,19.95-26.28Z"/>
    <path class="cls-3" d="M-21.53,502.76c-3.4-1.4-4.87-5.66-4.25-9.29,.62-3.63,2.81-6.76,4.94-9.76,5.49-7.72,10.97-15.43,16.46-23.15-6.6-3.29-14.49,.65-20.2,5.31-4.12,3.36-8.1,7.28-13.24,8.64-5.14,1.36-11.8-1.2-12.51-6.47-.65-4.81,3.65-8.65,7.15-12.02,7.89-7.57,13.58-17.41,16.22-28.02,1.42-5.71,1.92-11.94-.49-17.31-2.41-5.36-8.44-9.42-14.15-7.98-6.23,1.57-10.22,8.82-16.64,9.22-4,.25-7.95-2.77-8.76-6.69-.82-3.92,1.61-8.26,5.37-9.62,2.16-.78,4.53-.65,6.83-.85,14.9-1.3,24.42-15.74,35.01-26.3,1.39-1.39,3.13-2.82,5.07-2.52,1.71,.27,2.9,1.8,3.9,3.22,8.33,11.83,16.39,23.85,24.41,35.89,3.99,6,7.98,12,11.97,18,3.76,5.65,8.02,11.23,10.86,17.42,3.79,8.24,2.55,15.75-4.16,21.89-7.83,7.17-17.88,11.49-26.3,17.88-5.53,4.19-10.01,9.09-14.13,14.64-2.91,3.92-7.71,10.18-13.37,7.86Z"/>
    <path class="cls-3" d="M305.31,362.21c8.61-12.61,11.77-28.18,19.5-41.35,4.4-7.5,10.24-17.2,4.64-23.85-18.7,11.06-36.33,23.92-52.56,38.34-1.65,1.47-3.32,2.99-4.36,4.95-3.14,5.9,.39,13.63-2.53,19.64-3.15,6.47-11.77,7.56-18.96,7.5-7.19-.06-15.63,.16-19.79,6.03-4.27,6.01-1.44,14.36-2.79,21.61-1.26,6.79-6.12,12.25-9.71,18.15-3.59,5.9-5.91,13.77-2.03,19.48-1.26-1.85,5.91-5.45,6.9-5.8,3.34-1.16,6.92-1.46,10.41-1.91,8.45-1.09,16.39-4.35,23.32-9.32,4.27-3.06,7.3-6.97,10.27-11.24,4.39-6.31,9.44-11.78,14.82-17.26,7.84-7.98,16.55-15.69,22.89-24.98Z"/>
    <path class="cls-3" d="M221.71,344.07c-2.1,2.16-4.27,4.42-5.2,7.29-.52,1.6-.62,3.29-.99,4.93-.76,3.31-2.62,6.24-4.44,9.1-3.69,5.78-7.37,11.56-11.06,17.33-4.71-1.39-6.21-7.2-6.92-12.06-.59-4.03-1.11-8.43,.99-11.91,1.37-2.26,3.65-3.79,5.53-5.66,7.57-7.54,7.7-19.51,11.19-29.6,.36-1.05,.82-2.16,1.76-2.77,.74-.49,1.67-.58,2.56-.62,5.81-.28,11.69,.86,16.97,3.29,3.7,1.7,2.77,7.36,.4,9.91-3.45,3.69-7.25,7.15-10.78,10.78Z"/>
    <path class="cls-5" d="M638.36,545.39c-3.99,2.1-8.36-2.73-9-7.2-.63-4.47,.43-9.33-1.72-13.3-2.14-3.97-9.83-4.31-9.95,.2-3.21-4.68-11.91-4.54-13-10.11-.52-2.65,1.15-5.16,1.99-7.72,3.88-11.79-9.51-25.85-2.36-35.99,2.91-4.13,8.85-6.58,9.17-11.62,.61-9.66-17.84-8.3-21.01-17.44-.57-1.65-.54-3.46-1.15-5.1-1.86-4.95-8.77-5.94-13.63-3.86-4.86,2.08-8.55,6.16-13.04,8.94-4.49,2.78-10.88,3.97-14.71,.32-5.44-5.18-1.12-14.01,1.45-21.06,3.45-9.47,2.92-20.31-1.42-29.4,5.87-.3,9.07-6.74,11.54-12.07,2.46-5.33,7.26-11.31,12.89-9.65,4.43,1.31,6.12,6.5,8.65,10.37,7.18,11.02,22.51,12.21,34.37,17.91,10.8,5.19,18.99,14.44,26.88,23.46,6.41,7.32,12.82,14.65,19.23,21.97,4.73,5.4,9.79,10.96,12.13,17.9,4.06,12.05-3.56,24.28-8.66,34.76-4.46,9.17-4.96,17.75-1.95,27.39-10.97,4.96-20.28,10.7-26.71,21.34Z"/>
    <path class="cls-3" d="M470.76,499.45c-2.93-4.22-7.03-8.13-7.43-13.25-.4-5.18,3.15-9.73,6.36-13.81,3.19-4.04,6.33-8.38,7.23-13.45,.91-5.06-1.11-11.02-5.83-13.05-7.01,8.05-13.14,16.86-18.24,26.24-6.96,12.8-13.19,27.83-26.62,33.47-1.62,.68-3.36,1.23-4.64,2.44-3.29,3.09-1.97,8.43-1.81,12.94,.23,6.51-2.75,13.06-7.8,17.17-2.05,1.67-4.59,4.68-2.56,6.37,.71,.59,1.72,.63,2.65,.64,12.73,.11,25.46,.21,38.19,.32,.16-4.97,4.15-8.96,8.3-11.7,4.15-2.74,8.86-4.9,11.98-8.77,3.15-3.9,2.2-8.08,2.72-12.64,.55-4.75,.33-8.83-2.51-12.91Z"/>
    <path class="cls-3" d="M659.79,524.31c-3.74,2.71-8.37,4.12-11.79,7.21-2.23,2.02-3.88,4.69-6.4,6.33-2.52,1.64-6.53,1.72-7.98-.92-1.35-2.44,.27-5.42,.29-8.21,.03-5.74-7.15-9.26-12.7-7.78-5.55,1.48-9.59,6.12-13.28,10.52-4.91-3.28-2.55-10.91,.52-15.96,3.07-5.05,6.17-12.13,1.89-16.2-2.69-2.56-7.49-2.7-9.15-6.02-1.03-2.07-.37-4.52,.1-6.78,2.96-14.22-3.5-29.94-15.62-37.96-2.35-1.55-4.94-2.86-7.73-3.2-5.71-.71-11.42,2.63-17.08,1.6-5.91-1.07-10.1-6.79-11.28-12.68-1.18-5.89,0-11.97,1.2-17.86,1.02-5.04,2.04-10.09,3.06-15.13,1.2-5.92,2.44-11.97,5.54-17.16,3.09-5.19,8.44-9.44,14.48-9.56,7.05-.13,12.89,5.1,18.22,9.72,13.38,11.6,28.4,21.3,44.48,28.71,6.34,2.92,13.09,5.66,17.67,10.93,7.87,9.04,7.8,23.77,17.31,31.07,5.19,3.98,12.71,5,15.95,11.21,2.44,4.67,2.07,9.28-1.72,13.04-2,1.98-4.46,3.49-6.9,4.88-1.51,.86-3.05,1.65-4.59,2.45-2.03,1.06-3.14,1.16-3.42,3.34-.79,6.04-.04,12.06-1.39,18.12-1.41,6.31-4.3,12.4-9.66,16.28Z"/>
    <path class="cls-4" d="M538.38,376.98c3.38,4.35,6.75,8.71,10.13,13.06,2.09,2.7,4.26,5.58,4.67,8.97,.36,2.96-.69,5.9-1.87,8.64-6.46,15.03-17.2,27.77-25.65,41.78-8.44,14.02-14.73,30.68-10.85,46.58,.48,1.97,1.87,4.36,3.83,3.84"/>
    <path class="cls-4" d="M206.96,450.75c9.04-5.16,18.09-10.33,27.13-15.49,12.62-7.2,25.68-14.81,33.87-26.81,8.11-11.88,11.63-28.09,24.32-34.85,7.25-3.86,16.53-3.89,22.5-9.52,10.2-9.61,3.95-28.24,12.63-39.23,2.82-3.58,6.94-5.9,10.06-9.23,3.12-3.32,5.13-8.57,2.66-12.4"/>
    <path class="cls-11" d="M677.76,564.05c-7.53-7.74-15.05-15.47-22.58-23.21-2.15,6.55-4.29,13.09-6.44,19.64-1.37,4.16-2.74,8.35-3.48,12.66-1.14,6.6-.79,13.35-.45,20.04,.41,7.8,.93,15.98,5.1,22.58,1.4,2.22,3.27,4.25,5.71,5.2,1.56,.61,3.27,.74,4.87,1.22,7.62,2.27,12.68,12.06,20.55,10.91-.31,.04,.89-15.49,1.12-16.93,.7-4.27,1.74-8.53,2.1-12.85,.26-3.17-.11-6.21-.96-9.28-1.32-4.74-4.26-9.54-4.05-14.56,.12-2.89,1.72-5.44,1.94-8.3,.22-3.01-1.44-5.08-3.43-7.13Z"/>
    <path class="cls-11" d="M591.44,551.23c-1.18,1.12-2.55,2.03-3.67,3.2-2.46,2.56-3.53,6.1-4.58,9.49-1.05,3.39-2.25,6.92-4.86,9.32-2.61,2.4-7.09,3.15-9.61,.66,6.37-3.69,10.66-10.73,11.03-18.08,.04-.88,.06-1.85,.64-2.52,.69-.79,1.86-.85,2.88-1.09,2.23-.53,4.14-2.29,4.84-4.48,1.57,1.49,2.87,3.26,3.83,5.2"/>
    <path class="cls-11" d="M402.15,320.37c6.36-4.2,7.58-14.36,2.39-19.94-5.43,5.34-5.3,13.97-4.79,21.56"/>
    <path class="cls-11" d="M156.83,359.68c-2.3-.22-4.65-1.83-4.9-4.13-.43-3.97,5.2-7.42,3.43-11-1.38-2.8-5.89-1.88-7.84,.56-3.33,4.16-2.56,10.16-4.05,15.27-1.89,6.49-7.32,11.21-11.76,16.31-4.44,5.1-8.23,12.02-5.96,18.39,2.21-3.11,4.15-6.41,5.76-9.86,1.68,1.02,3.87,1.17,5.68,.4-1.58,3.6,2.54,8.16,6.27,6.94,.9-.29,1.72-.83,2.66-.97,3.69-.55,5.62,3.97,8.98,4.22,3.84,.29,4.37-7.17,5.87-9.78,1.6-2.78,4.02-4.88,5.78-7.54,2.16-3.27,2.44-7.16,1.78-10.96-.48-2.74-1.58-5.47-3.38-7.62-1.38-1.65-1.69-1.51-3.65-.93-1.59,.47-3.02,.69-4.67,.69Z"/>
    <path class="cls-11" d="M421.6,428.26c-.42-4.08-2.13-9.36-6.23-9.21-2.23,.08-4.05,2.02-4.72,4.15-.67,2.13-.45,4.42-.21,6.64,.8,7.65,1.6,15.29,2.39,22.94,.45,4.3,.9,8.6,1.35,12.9,.11,1.07,.25,2.2,.92,3.03,3.23,3.99,3.92-4.97,4.27-6.37,.72-2.88,1.9-5.53,2.44-8.48,1.55-8.45,.68-17.14-.2-25.62Z"/>
    <path class="cls-11" d="M361.49,339.55c-5.11-7.46-5.89-17.66-1.97-25.81,2.58-5.36,6.9-9.65,11.14-13.83,1.6,7.93-.55,16.06-1.92,24.03-1.37,7.97-1.77,16.8,2.76,23.5,1.95,2.88,4.75,5.16,6.36,8.27,.47,.91,2.47,6.36,.42,5.93-1.34-.29-2.88-4.71-3.48-5.8-1.55-2.82-3.55-5.25-5.73-7.6-2.61-2.82-5.4-5.5-7.57-8.68Z"/>
    <path class="cls-11" d="M928.77,495.69c-7.04-.24-14.22-.76-20.76-3.38-6.54-2.62-12.46-7.66-14.5-14.41-.18-.6-.33-1.23-.18-1.84,.24-.95,1.15-1.55,2-2.03,6.68-3.77,14.38-5.71,22.04-5.54,1.57,.03,3.23,.19,4.48,1.14,1.54,1.17,2.05,3.21,2.97,4.91,2.62,4.89,8.55,6.92,14.04,7.74,5.49,.83,11.29,.95,16.11,3.69,.92-3.64-1.63-7.28-4.56-9.64-2.93-2.36-6.43-4.12-8.66-7.15-2.23-3.03-2.48-8.04,.74-9.98,1-.61,2.19-.82,3.35-.98,11.26-1.55,22.77,1.33,33.04,6.21,10.27,4.88,19.48,11.68,28.61,18.44,.82,.6,1.68,1.28,1.94,2.26,.5,1.89-1.54,3.5-3.43,3.99-1.89,.49-4.04,.53-5.48,1.86-1.43,1.33-.79,4.55,1.13,4.23-5.56,.93-9.65,.05-15.01-1.76-4.38-1.48-9-2.56-13.65-1.85-3.03,.46-5.8,1.87-8.75,2.63-5.01,1.29-10.37,1.25-15.51,1.44-6.66,.24-13.32,.25-19.97,.02Z"/>
    <path class="cls-11" d="M915.63,575.94c-2.29-.55-4.62-1-6.83-1.81-3.92-1.42-7.42-3.88-11.39-5.15-2.61-.84-5.37-1.15-7.99-1.95-5.88-1.8-10.7-5.95-15.34-9.99,4.89,5.01,9.78,10.02,14.66,15.04,5.52,5.66,11.4,11.54,19.01,13.69,3.34,.94,6.78,1.24,9.9,2.87,3.09,1.61,5.63,4.04,8.17,6.38,4.23,3.89,9.06,9.18,14.89,10.51,4.89,1.12,12.3-3.16,12.14-8.71-.09-3.15-4.2-5.25-6.5-6.88-2.81-2.01-5.74-3.85-8.77-5.51-6.9-3.79-14.31-6.67-21.97-8.5Z"/>
    <path class="cls-11" d="M936.8,650.22c-4.38-1.78-8.84-3.6-12.46-6.64-5.23-4.38-8.47-11.09-14.49-14.31-1.36-.73-2.92-1.26-4.43-.94-3.12,.66-4.4,4.37-4.82,7.53-.61,4.54-.62,9.16-.02,13.7,1.53,1.38,3.88-.45,4.83-2.28,.95-1.83,2.12-4.17,4.18-4.06,.82,.04,1.55,.51,2.24,.95,5.92,3.85,11.84,7.69,17.76,11.54,7.23,4.7,15.49,9.97,24.48,9.52,4.17-.21,5.33-5.31,3.04-8.5-1.6-2.23-4.19-1.79-6.61-1.94-4.81-.29-9.3-2.79-13.71-4.58Z"/>
    <path class="cls-3" d="M802.99,505.73c-1.27,1.6-2.71,3.37-4.74,3.59-1.39,.15-2.74-.49-3.99-1.11-13.78-6.82-27.56-13.64-41.34-20.46-13.83-6.84-27.73-13.73-40.15-22.88-4.29-3.16-8.44-6.61-13.28-8.84-7.07-3.26-15.24-3.76-22.07-7.48-8.72-4.76-14.21-14.87-13.44-24.78-.05,.63,8.37,3.91,9.41,4.39,3.29,1.5,6.58,2.98,9.89,4.42,6.62,2.89,13.28,5.68,19.99,8.36,13.28,5.3,26.72,10.18,40.31,14.62,13.59,4.44,27.32,8.45,41.16,12.02,7,1.8,14.02,3.49,21.07,5.07,3.52,.79,7.06,1.55,10.59,2.28,2.64,.55,6.37,.6,8.48,2.48,5.57,4.95-2.18,9.56-5.61,12.22-6.04,4.69-11.52,10.11-16.28,16.1Z"/>
    <path class="cls-3" d="M919.8,532.91c-1.82,3.69-5.87,6.94-9.79,5.68-3.31-1.06-4.96-4.88-5.07-8.35-.11-3.47,.89-6.89,.98-10.36,.2-7.4-3.69-14.25-7.76-20.44-.64-.97-1.32-2.15-.89-3.23,.6-1.54,2.76-1.53,4.39-1.25,6.84,1.18,13.68,2.36,20.53,3.54,3.38,.58,6.76,1.17,10.14,1.75,1.86,.32,5.7,.21,7.19,1.61,3.35,3.16-11.58,12.01-13.65,13.85-2.42,2.15-4.39,3.85-4.36,7.27,.03,3.52-.08,6.7-1.7,9.94Z"/>
    <path class="cls-3" d="M-50.66,589.89c5.08-.32,9.89,2.64,14.98,2.62,11.48-.05,18.14-14.34,29.36-16.73,1.84-.39,3.75-.44,5.55-.99,4.78-1.45,8.26-6.19,13.21-6.77,4.13-.49,7.95,2.07,11.32,4.51,2.32-5.26,7.59-8.46,11.68-12.49,4.1-4.03,7.18-10.59,3.97-15.36-19.61,9.17-40.96,14.62-62.56,15.98-1.69,.11-3.55,.14-4.89-.9-1.13-.87-1.63-2.32-2.56-3.41-2.68-3.12-7.63-2.28-11.6-1.17-11.66,3.27-23.33,6.55-34.99,9.82-2.53,.71-5.1,1.44-7.34,2.8-2.22,1.35-4.02,3.27-5.8,5.16-7.03,7.5-14.07,15-21.1,22.5-3.02,3.22-7.84,6.76-6.98,11.75,.47,2.73,2.04,6.02,4.35,7.67,4.34,3.08,10.34-.32,14.34-2.4,6.89-3.59,13.54-6.82,20.83-9.53,4.99-1.85,9.82-4.11,14.43-6.76,4.31-2.48,8.63-5.97,13.79-6.29Z"/>
    <path class="cls-11" d="M-.37,501.63c-4.51-.1-8.48,3.03-11.28,6.57-2.81,3.54-4.92,7.64-8.14,10.8-2.59,2.53-5.81,4.36-8.35,6.95-2.72,2.78-4.58,6.37-7.55,8.88-2.8,2.37-6.38,3.6-9.48,5.58-2.79,1.78-5.72,4.83-5.55,8.39,.24,5.25,6.84,.09,8.97-1.04,6.09-3.23,13.01-3.71,19.59-5.48,10.18-2.74,17.45-9.94,23.84-18.09,2.41-3.07,5.76-8.27,3.66-12.24-1.63-3.08-7.78-6.08-5.7-10.33Z"/>
    <path class="cls-11" d="M718.28,595.23c-1.93-1.12-4.41-1.23-6.1-2.69-.97-.84-1.56-2.04-2.13-3.19-5.47-11.05-11.98-21.58-19.41-31.42-2.76,3.62-.29,8.68,1.31,12.94,3.16,8.43,2.37,18.28-2.18,26.05-.81,1.39-1.75,2.75-2.08,4.32-.33,1.57,.15,3.45,1.57,4.2,2.29,1.21,5.73-1,7.45,.94,.68,.77,.74,1.88,.87,2.9,.9,7.02,7.73,12.75,14.8,12.42-.32,.01,.92-2.81,1.06-3.02,.65-.94,1.5-1.73,2.35-2.48,1.65-1.44,3.42-2.77,4.8-4.5,2.25-2.82,1.98-6.4,1.56-9.8-.32-2.61-1.51-5.3-3.87-6.67Z"/>
    <path class="cls-11" d="M757.61,570.41c-3.93-2.28-9.7-.42-12.88-3.67-.91-.93-1.44-2.15-2.01-3.32-2.64-5.43-6.47-10.28-11.13-14.11-2.05,1.07-2.38,4.01-1.47,6.13,.91,2.13,2.7,3.73,4.13,5.55,3.96,5.02,5.5,11.98,10.6,15.84,1,.76,2.12,1.38,3,2.27,1.33,1.35,1.99,3.2,3.06,4.76,1.07,1.56,2.93,2.9,4.74,2.38,1.82-.52,2.08-2.26,2.73-3.76,.5-1.17,1.4-2.1,1.87-3.29,1.19-3.06,.31-7.06-2.66-8.78Z"/>
    <path class="cls-4" d="M302.76,511.48c-17.19-16.91-31.12-37.12-40.8-59.21-4.28-9.76-8.13-20.42-16.63-26.85"/>
    <path class="cls-4" d="M93.58,511.74c-11.82,2.33-23.63,4.66-35.45,6.99-3,.59-6.16,1.26-8.43,3.31-4.61,4.16-3.34,11.79-.37,17.24,2.98,5.45,7.35,10.44,8.13,16.6-12.18,.84-22.83,11.78-23.33,23.98-.26,6.4,1.93,12.71,1.67,19.11-.56,14.19-12.49,24.93-23.49,33.91"/>
    <path class="cls-4" d="M653.41,432.68c9.96,12.32,22.09,22.89,35.66,31.07,14.19,8.56,30.04,14.61,42.66,25.36,9.14,7.79,16.43,17.93,26.94,23.73,9.06,5,19.96,6.44,28.25,12.62,6.34,4.72,10.5,11.73,15.71,17.67,5.21,5.94,12.5,11.17,20.35,10.21"/>
    <path class="cls-4" d="M1187.74,484.2c-14.51-19.9-29.41-40.18-49.57-54.33-20.17-14.15-46.93-21.31-69.85-12.29-9.7,3.82-18.11,10.23-27.17,15.37-24.13,13.7-53.36,18.19-80.49,12.35-7.78-1.68-15.8-4.18-23.55-2.33-15.7,3.75-26.16,24.28-42.04,21.37-5.07-.93-9.39-4.25-14.37-5.57-8.17-2.16-16.62,1.31-24.64,3.97-64.46,21.4-134.86-8.86-189.97-48.56,.2,8.89-14.04,6.8-21.19,1.52-35.3-26.08-71.99-53.82-90.53-93.59-2.9-6.22-5.59-13.03-11.23-16.96-8.53-5.96-20.07-3.07-30.29-1.12-34.86,6.64-72.26-1.28-101.43-21.49-13.87-9.61-28.24-22.54-44.95-20.21-9.95,1.39-18.24,8.08-25.96,14.51-13.12,10.93-26.23,21.85-39.35,32.78-7.77,6.47-15.96,13.15-25.85,15.23-29.71,6.24-54.63-30.89-84.77-27.22-11.97,1.46-22.09,9.22-31.55,16.69-36.04,28.48-72.09,56.97-108.13,85.45-18.8-20.03-40.03-37.78-63.06-52.75-29.99,28.83-71.41,45.43-113.01,45.31"/>
    <path class="cls-4" d="M1024.19,662.38c-20.5-12.57-40.99-25.14-61.49-37.7-7.07-4.34-14.29-8.74-22.34-10.73-5.44-1.34-11.13-1.55-16.52-3.12-10.44-3.05-18.68-10.87-26.49-18.44-15.88-15.38-31.76-30.76-47.65-46.14-40.66,21.26-81.33,42.51-121.99,63.77"/>
  </g>
  <path class="cls-8" d="M40.03,1036.37c-.26-.53-.52-1.06-.78-1.59,.05,.63,.11,1.27,.16,1.9,.2-.1,.41-.21,.61-.31Z"/>
  <rect class="cls-9" x="-185.98" y="779.42" width="1398.64" height="285.26"/>
  <text class="cls-2" transform="translate(44.84 998.25)"><tspan x="0" y="0">OC</tspan><tspan class="cls-6" x="472.65" y="0">R</tspan><tspan x="682.63" y="0">C</tspan></text>
</svg>