<?xml version="1.0" encoding="UTF-8"?>
<svg version="1.1" xmlns="http://www.w3.org/2000/svg" width="200" height="200">
<path d="M0 0 C66 0 132 0 200 0 C200 66 200 132 200 200 C134 200 68 200 0 200 C0 134 0 68 0 0 Z " fill="#FDFDFE" transform="translate(0,0)"/>
<path d="M0 0 C6.52718154 2.05138934 12.79177948 4.50951865 19.06640625 7.23046875 C19.98590561 7.62575272 20.90540497 8.02103668 21.85276794 8.42829895 C24.75750157 9.67794038 27.66002247 10.9326287 30.5625 12.1875 C32.54477716 13.04135167 34.52719771 13.89487053 36.50976562 14.74804688 C41.34150758 16.82818787 46.17144854 18.91246456 51 21 C51 21.66 51 22.32 51 23 C49.71802734 23.50660156 49.71802734 23.50660156 48.41015625 24.0234375 C47.30542969 24.46945313 46.20070313 24.91546875 45.0625 25.375 C43.96035156 25.81585938 42.85820312 26.25671875 41.72265625 26.7109375 C38.88769814 27.71041432 38.88769814 27.71041432 38 30 C38.56203125 30.12246094 39.1240625 30.24492188 39.703125 30.37109375 C42.18986519 31.0519869 44.40514776 31.99352325 46.75 33.0625 C47.54921875 33.42472656 48.3484375 33.78695312 49.171875 34.16015625 C49.77515625 34.43730469 50.3784375 34.71445313 51 35 C48.80535779 37.438173 46.83727926 38.70738137 43.82324219 39.97705078 C42.98517029 40.33397003 42.14709839 40.69088928 41.28363037 41.05862427 C40.3805011 41.43373138 39.47737183 41.8088385 38.546875 42.1953125 C37.61329163 42.58822479 36.67970825 42.98113708 35.71783447 43.38595581 C33.74230383 44.21492344 31.76518666 45.0401188 29.78662109 45.86181641 C26.77072669 47.11637805 23.76215147 48.38738026 20.75390625 49.66015625 C18.83114948 50.4645471 16.9079851 51.26796444 14.984375 52.0703125 C14.08934265 52.44946808 13.1943103 52.82862366 12.27215576 53.2192688 C1.00421116 57.86344414 1.00421116 57.86344414 -5.37060547 56.03125 C-6.52447754 55.5259375 -7.67834961 55.020625 -8.8671875 54.5 C-9.50028336 54.22858688 -10.13337921 53.95717377 -10.78565979 53.67753601 C-12.82250362 52.8003799 -14.84839468 51.90052379 -16.875 51 C-18.268868 50.39517231 -19.66348461 49.79206701 -21.05883789 49.19067383 C-23.79741816 48.00870458 -26.53257068 46.81933918 -29.26513672 45.62353516 C-33.96046633 43.57435842 -38.69264395 41.61882863 -43.4375 39.6875 C-44.74876056 39.14989235 -46.05996696 38.61215256 -47.37109375 38.07421875 C-48.23863281 37.71972656 -49.10617188 37.36523438 -50 37 C-50 36.01 -50 35.02 -50 34 C-46.04 32.35 -42.08 30.7 -38 29 C-41.96 27.02 -45.92 25.04 -50 23 C-49 20 -49 20 -45.72460938 18.34594727 C-44.2689392 17.74152705 -42.8082191 17.14918382 -41.34375 16.56640625 C-40.17930359 16.08759254 -40.17930359 16.08759254 -38.99133301 15.59910583 C-36.49833026 14.57649199 -33.99947886 13.56916776 -31.5 12.5625 C-29.03053241 11.55610739 -26.56234185 10.54663653 -24.09436035 9.53660583 C-22.55833183 8.90929158 -21.02120977 8.28464543 -19.48278809 7.66322327 C-14.88658046 5.80172044 -10.35902676 3.83066118 -5.85754395 1.74961853 C-4 1 -4 1 -2 1 C-0.76985048 13.16481191 -0.76985048 13.16481191 -3.67578125 17.5 C-5.72408639 19.41724356 -7.84430494 21.20571338 -10 23 C-13.58827289 28.15814228 -13.32329117 32.94128405 -13 39 C-12.278125 39.12375 -11.55625 39.2475 -10.8125 39.375 C-8 40 -8 40 -5.5625 41.0625 C-2.54577353 42.16618042 -0.19019526 42.21267968 3 42 C3.66 41.67 4.32 41.34 5 41 C4.071875 39.88625 4.071875 39.88625 3.125 38.75 C-0.63032007 33.89017403 -1.42003397 30.5425778 -1.33984375 24.45703125 C-0.86117221 20.99629104 1.04376776 18.83969196 3 16 C2.84327158 11.53324015 1.65920716 8.092711 0 4 C0 2.68 0 1.36 0 0 Z " fill="#667188" transform="translate(95,43)"/>
<path d="M0 0 C0.99 0.495 0.99 0.495 2 1 C1.67 1.66 1.34 2.32 1 3 C1.680625 3.103125 2.36125 3.20625 3.0625 3.3125 C6.62915989 4.14725019 9.66222194 5.49472754 13 7 C13 7.66 13 8.32 13 9 C-7.24789419 18.18965999 -7.24789419 18.18965999 -16.125 21.80859375 C-18.30308824 22.71119825 -20.46754221 23.64679393 -22.625 24.59765625 C-23.24842285 24.87198486 -23.8718457 25.14631348 -24.51416016 25.42895508 C-26.26924744 26.20333956 -28.02144031 26.98427453 -29.7734375 27.765625 C-37.87581557 30.86532411 -42.15273671 29.17742196 -49.875 25.8125 C-50.83019531 25.41224609 -51.78539062 25.01199219 -52.76953125 24.59960938 C-56.97318837 22.82069549 -61.1143655 20.97879023 -65.17578125 18.89453125 C-69.11008021 16.88468317 -73.1559935 15.35862555 -77.3125 13.875 C-81.11963165 12.51156442 -84.60762578 11.26158282 -88 9 C-88 8.34 -88 7.68 -88 7 C-83.33711805 3.47904832 -78.89389745 1.06219378 -73 1 C-64.20608983 3.24233269 -55.97010082 7.50458668 -47.89990234 11.57617188 C-46.94293457 12.04603516 -45.9859668 12.51589844 -45 13 C-44.19385254 13.41314453 -43.38770508 13.82628906 -42.55712891 14.25195312 C-36.39576923 16.05435966 -30.7297045 13.29489882 -25.16796875 10.8046875 C-24.45014725 10.49298615 -23.73232574 10.18128479 -22.99275208 9.86013794 C-20.72071258 8.87314763 -18.45367104 7.87538398 -16.1875 6.875 C-13.18481114 5.55092503 -10.17783102 4.23735846 -7.16796875 2.9296875 C-6.47841599 2.62143036 -5.78886322 2.31317322 -5.07841492 1.99557495 C-3.41022223 1.27086689 -1.7071986 0.6273289 0 0 Z " fill="#E5E7EC" transform="translate(133,84)"/>
<path d="M0 0 C6.52718154 2.05138934 12.79177948 4.50951865 19.06640625 7.23046875 C20.44565529 7.8233947 20.44565529 7.8233947 21.85276794 8.42829895 C24.75750157 9.67794038 27.66002247 10.9326287 30.5625 12.1875 C32.54477716 13.04135167 34.52719771 13.89487053 36.50976562 14.74804688 C41.34150758 16.82818787 46.17144854 18.91246456 51 21 C51 21.66 51 22.32 51 23 C44.95611631 25.59774415 38.90486928 28.17770023 32.84814453 30.74536133 C30.78813135 31.62115101 28.72984573 32.50101576 26.67333984 33.38500977 C23.71895705 34.65412596 20.75869444 35.90851166 17.796875 37.16015625 C16.87694763 37.55904556 15.95702026 37.95793488 15.00921631 38.36891174 C14.1486261 38.72936081 13.28803589 39.08980988 12.40136719 39.46118164 C11.64635925 39.78317032 10.89135132 40.105159 10.11346436 40.43690491 C7.65158557 41.09282884 6.36387983 40.89692257 4 40 C0.31398266 36.28488252 -1.35076487 32.05858967 -1.5625 26.875 C-1.34892966 22.21204753 0.36387786 19.82662892 3 16 C2.84327158 11.53324015 1.65920716 8.092711 0 4 C0 2.68 0 1.36 0 0 Z " fill="#0D2044" transform="translate(95,43)"/>
<path d="M0 0 C1.23014952 12.16481191 1.23014952 12.16481191 -1.67578125 16.5 C-3.08866149 17.82247657 -4.53846263 19.10667902 -6.0234375 20.34765625 C-10.10721083 23.76156162 -11.05559986 27.61555538 -11.56640625 32.69140625 C-11.64963135 33.49908447 -11.73285645 34.3067627 -11.81860352 35.13891602 C-11.90839478 36.06015259 -11.90839478 36.06015259 -12 37 C-24.10691009 32.23010163 -36.11933995 27.3097922 -48 22 C-47 19 -47 19 -43.72460938 17.34594727 C-42.2689392 16.74152705 -40.8082191 16.14918382 -39.34375 15.56640625 C-38.17930359 15.08759254 -38.17930359 15.08759254 -36.99133301 14.59910583 C-34.49833026 13.57649199 -31.99947886 12.56916776 -29.5 11.5625 C-27.03053241 10.55610739 -24.56234185 9.54663653 -22.09436035 8.53660583 C-20.55833183 7.90929158 -19.02120977 7.28464543 -17.48278809 6.66322327 C-12.88658046 4.80172044 -8.35902676 2.83066118 -3.85754395 0.74961853 C-2 0 -2 0 0 0 Z " fill="#0D2145" transform="translate(93,44)"/>
<path d="M0 0 C2.70567626 1.82339052 4.53728718 3.07457436 6 6 C6.14943856 8.26744274 6.22144902 10.5403175 6.25 12.8125 C6.27578125 14.03582031 6.3015625 15.25914062 6.328125 16.51953125 C5.97602414 20.25431539 5.26603413 22.05097895 3 25 C-1.02314866 27.68209911 -4.27219919 27.68843415 -9 27 C-12.49890004 24.88608123 -13.70578686 23.88263941 -15 20 C-15.17143087 17.71238153 -15.26643463 15.41857031 -15.3125 13.125 C-15.34988281 11.91070312 -15.38726562 10.69640625 -15.42578125 9.4453125 C-14.92751697 5.41348594 -13.80478916 3.86758295 -11 1 C-7.37689897 -1.74855941 -4.27080449 -1.04896952 0 0 Z " fill="#F5F8FA" transform="translate(146,125)"/>
<path d="M0 0 C13 0 13 0 17 3 C17.46913089 7.37855495 17.46943529 9.29584707 15 13 C15.495 13.350625 15.99 13.70125 16.5 14.0625 C18.82091376 17.06034694 18.45113866 19.32644233 18 23 C16.42578125 25.20703125 16.42578125 25.20703125 14 27 C9.2805118 27.53387876 4.76525513 27.17649093 0 27 C0 18.09 0 9.18 0 0 Z " fill="#1D2B45" transform="translate(68,125)"/>
<path d="M0 0 C13.03275333 -0.60900716 13.03275333 -0.60900716 17.375 2.125 C19.28955397 5.51228779 19.73213349 7.17663624 19 11 C17 13.375 17 13.375 15 15 C16.58962659 19.03520597 18.28232318 23.01811282 20 27 C17.75 27 17.75 27 15 26 C12.94304343 23.00985547 11 19.686098 11 16 C8.69 16 6.38 16 4 16 C4 19.63 4 23.26 4 27 C2.68 27 1.36 27 0 27 C0 18.09 0 9.18 0 0 Z " fill="#1D2D4B" transform="translate(16,125)"/>
<path d="M0 0 C5 1 5 1 6.66918945 2.76586914 C7.14573975 3.51473389 7.62229004 4.26359863 8.11328125 5.03515625 C8.9012207 6.24848633 8.9012207 6.24848633 9.70507812 7.48632812 C10.50075195 8.7615332 10.50075195 8.7615332 11.3125 10.0625 C12.13717773 11.34350586 12.13717773 11.34350586 12.97851562 12.65039062 C14.33269388 14.75819852 15.66817324 16.87799851 17 19 C17.33 12.73 17.66 6.46 18 0 C18.99 0 19.98 0 21 0 C21 8.91 21 17.82 21 27 C19.68 27 18.36 27 17 27 C15.27160359 24.78633458 13.85837989 22.71098359 12.4375 20.3125 C11.85838867 19.37374023 11.85838867 19.37374023 11.26757812 18.41601562 C10.16318972 16.61926788 9.07902888 14.81207129 8 13 C7.01 11.35 6.02 9.7 5 8 C4.67 14.27 4.34 20.54 4 27 C2.68 27 1.36 27 0 27 C0 18.09 0 9.18 0 0 Z " fill="#202F4B" transform="translate(159,125)"/>
<path d="M0 0 C2.70567626 1.82339052 4.53728718 3.07457436 6 6 C6.14943856 8.26744274 6.22144902 10.5403175 6.25 12.8125 C6.27578125 14.03582031 6.3015625 15.25914062 6.328125 16.51953125 C5.97602414 20.25431539 5.26603413 22.05097895 3 25 C-1.02314866 27.68209911 -4.27219919 27.68843415 -9 27 C-12.49890004 24.88608123 -13.70578686 23.88263941 -15 20 C-15.17143087 17.71238153 -15.26643463 15.41857031 -15.3125 13.125 C-15.34988281 11.91070312 -15.38726562 10.69640625 -15.42578125 9.4453125 C-14.92751697 5.41348594 -13.80478916 3.86758295 -11 1 C-7.37689897 -1.74855941 -4.27080449 -1.04896952 0 0 Z M-10.4375 4.8125 C-12.75341404 9.53696465 -12.75096692 13.83613471 -12 19 C-10.68944108 22.28904021 -10.68944108 22.28904021 -8 24 C-4.5 24.83333333 -4.5 24.83333333 -1 24 C1.68944108 22.28904021 1.68944108 22.28904021 3 19 C3.75096692 13.83613471 3.75341404 9.53696465 1.4375 4.8125 C-0.97713716 2.73541201 -0.97713716 2.73541201 -4.5 2.375 C-8.02286284 2.73541201 -8.02286284 2.73541201 -10.4375 4.8125 Z " fill="#1B2A45" transform="translate(146,125)"/>
<path d="M0 0 C7.425 2.97 7.425 2.97 15 6 C15 6.99 15 7.98 15 9 C13.56570999 9.67354499 12.12742943 10.33859701 10.6875 11 C9.88699219 11.37125 9.08648437 11.7425 8.26171875 12.125 C6 13 6 13 3 13 C2.67 13.66 2.34 14.32 2 15 C-5.425 12.03 -5.425 12.03 -13 9 C-13 8.01 -13 7.02 -13 6 C-12.14535156 5.65066406 -11.29070313 5.30132812 -10.41015625 4.94140625 C-9.30542969 4.48636719 -8.20070313 4.03132813 -7.0625 3.5625 C-5.96035156 3.11003906 -4.85820313 2.65757813 -3.72265625 2.19140625 C-1.13431084 1.25575392 -1.13431084 1.25575392 0 0 Z " fill="#8791A3" transform="translate(58,71)"/>
<path d="M0 0 C0.33 0.66 0.66 1.32 1 2 C2.32313249 2.3717651 3.6593034 2.6976401 5 3 C6.59586121 3.65789642 8.17936107 4.34647343 9.75 5.0625 C10.54921875 5.42472656 11.3484375 5.78695312 12.171875 6.16015625 C12.77515625 6.43730469 13.3784375 6.71445313 14 7 C9.85935595 11.75249179 4.13764744 14.1038519 -2 15 C-7.15225825 13.79212127 -11.61982585 10.86976927 -16 8 C-14.35090519 4.70181039 -10.72914036 4.129244 -7.4375 2.875 C-6.72658203 2.59785156 -6.01566406 2.32070312 -5.28320312 2.03515625 C-3.52453504 1.35057404 -1.76256576 0.67448365 0 0 Z " fill="#8791A2" transform="translate(132,71)"/>
<path d="M0 0 C3 2.3125 3 2.3125 5 5 C5 6.32 5 7.64 5 9 C3.68 9 2.36 9 1 9 C0.34 7.35 -0.32 5.7 -1 4 C-2.27875 3.938125 -3.5575 3.87625 -4.875 3.8125 C-5.95394531 3.76029297 -5.95394531 3.76029297 -7.0546875 3.70703125 C-7.69664063 3.80371094 -8.33859375 3.90039062 -9 4 C-11.38081145 7.57121718 -11.26906871 9.26674633 -11.25 13.5 C-11.25515625 14.6446875 -11.2603125 15.789375 -11.265625 16.96875 C-11.22885568 20.17666163 -11.22885568 20.17666163 -9 23 C-7.02252878 23.36297936 -7.02252878 23.36297936 -4.875 23.1875 C-3.59625 23.125625 -2.3175 23.06375 -1 23 C-0.34 21.35 0.32 19.7 1 18 C2.32 18 3.64 18 5 18 C4.72608098 21.2870282 4.18168017 22.78993231 2 25.3125 C-2.06152711 27.597109 -5.43879288 27.97504065 -10 27 C-13.28175318 24.47031526 -14.69243777 22.92268669 -16 19 C-16.99368412 7.71109686 -16.99368412 7.71109686 -14.25 3.375 C-9.89496456 -1.22198186 -6.16470985 -1.90434601 0 0 Z " fill="#2C3A55" transform="translate(120,125)"/>
<path d="M0 0 C0.99 0 1.98 0 3 0 C3.01981934 0.59014893 3.03963867 1.18029785 3.06005859 1.78833008 C3.15534659 4.46350096 3.26500939 7.13789498 3.375 9.8125 C3.42140625 11.2056543 3.42140625 11.2056543 3.46875 12.62695312 C3.50742187 13.51962891 3.54609375 14.41230469 3.5859375 15.33203125 C3.6173584 16.15421143 3.6487793 16.9763916 3.68115234 17.82348633 C3.88373622 20.28952937 3.88373622 20.28952937 6 23 C7.97747122 23.36297936 7.97747122 23.36297936 10.125 23.1875 C11.40375 23.125625 12.6825 23.06375 14 23 C15.20270964 20.59458071 15.20316663 18.89633409 15.31640625 16.2109375 C15.35830078 15.26992187 15.40019531 14.32890625 15.44335938 13.359375 C15.48267578 12.37453125 15.52199219 11.3896875 15.5625 10.375 C15.60568359 9.38242188 15.64886719 8.38984375 15.69335938 7.3671875 C15.79961069 4.91160162 15.90164964 2.45591297 16 0 C17.32 0 18.64 0 20 0 C20.11660824 3.39554235 20.18738372 6.79056679 20.25 10.1875 C20.30027344 11.62706055 20.30027344 11.62706055 20.3515625 13.09570312 C20.45069252 20.25784723 20.45069252 20.25784723 18.109375 24.11328125 C15.22778196 26.69070613 13.47881565 27.20932906 9.6875 27.375 C8.92824219 27.42398438 8.16898438 27.47296875 7.38671875 27.5234375 C3.51873429 26.67513976 2.26425249 25.23748382 0 22 C-0.6043137 18.2087267 -0.47163507 14.51408632 -0.3125 10.6875 C-0.28994141 9.66076172 -0.26738281 8.63402344 -0.24414062 7.57617188 C-0.18537575 5.0492821 -0.10327849 2.52539745 0 0 Z " fill="#283751" transform="translate(41,125)"/>
<path d="M0 0 C2.97 0 5.94 0 9 0 C9 0.66 9 1.32 9 2 C7.02 2 5.04 2 3 2 C3 5.3 3 8.6 3 12 C5.64 12 8.28 12 11 12 C10.67 12.66 10.34 13.32 10 14 C7.69 14 5.38 14 3 14 C3 17.63 3 21.26 3 25 C5.31 25 7.62 25 10 25 C9.34 25.66 8.68 26.32 8 27 C5.36 27 2.72 27 0 27 C0 18.09 0 9.18 0 0 Z " fill="#0B1B39" transform="translate(68,125)"/>
<path d="M0 0 C1.423125 -0.061875 2.84625 -0.12375 4.3125 -0.1875 C5.51326172 -0.23970703 5.51326172 -0.23970703 6.73828125 -0.29296875 C9 0 9 0 10.8046875 1.31640625 C12 3 12 3 11.8125 6.125 C11.544375 7.07375 11.27625 8.0225 11 9 C7.57067929 10.71466036 3.78283935 10.05404056 0 10 C0 6.7 0 3.4 0 0 Z " fill="#E8EEF2" transform="translate(71,139)"/>
<path d="M0 0 C1.32 0 2.64 0 4 0 C4 8.91 4 17.82 4 27 C2.68 27 1.36 27 0 27 C0 18.09 0 9.18 0 0 Z " fill="#24334B" transform="translate(93,125)"/>
<path d="M0 0 C0.33 0 0.66 0 1 0 C1 2.64 1 5.28 1 8 C2.43861294 7.91253716 3.87597508 7.80434652 5.3125 7.6875 C6.11300781 7.62949219 6.91351563 7.57148438 7.73828125 7.51171875 C10.40063848 6.90935468 11.31193548 6.10358809 13 4 C13.33 3.34 13.66 2.68 14 2 C14.66 2 15.32 2 16 2 C16.36923077 6.55384615 16.36923077 6.55384615 14.5 8.8125 C14.005 9.204375 13.51 9.59625 13 10 C14.58962659 14.03520597 16.28232318 18.01811282 18 22 C15.75 22 15.75 22 13 21 C10.94304343 18.00985547 9 14.686098 9 11 C6.69 11 4.38 11 2 11 C2 10.34 2 9.68 2 9 C1.34 9 0.68 9 0 9 C0 6.03 0 3.06 0 0 Z " fill="#1B284A" transform="translate(18,130)"/>
<path d="M0 0 C6.8359375 -0.1953125 6.8359375 -0.1953125 9 0 C11 2 11 2 11.3125 5 C11.1578125 6.485 11.1578125 6.485 11 8 C7.91111478 10.05925681 7.29064073 10.2390374 3.8125 10.125 C1.9253125 10.063125 1.9253125 10.063125 0 10 C0 6.7 0 3.4 0 0 Z " fill="#F6F9F9" transform="translate(20,128)"/>
<path d="M0 0 C0.33 0 0.66 0 1 0 C1.12117188 0.75925781 1.24234375 1.51851562 1.3671875 2.30078125 C1.53476563 3.29464844 1.70234375 4.28851563 1.875 5.3125 C2.03742188 6.29863281 2.19984375 7.28476563 2.3671875 8.30078125 C2.88085454 11.20059827 2.88085454 11.20059827 5 14 C6.97747122 14.36297936 6.97747122 14.36297936 9.125 14.1875 C10.40375 14.125625 11.6825 14.06375 13 14 C13.66 12.35 14.32 10.7 15 9 C16.32 9 17.64 9 19 9 C18.72608098 12.2870282 18.18168017 13.78993231 16 16.3125 C11.8979026 18.61992978 8.60145747 18.90697806 4 18 C0.9375 16.25 0.9375 16.25 -1 13 C-1.45186116 8.95982963 -1.43393907 5.04183253 -1 1 C-0.67 0.67 -0.34 0.34 0 0 Z " fill="#24304B" transform="translate(106,134)"/>
<path d="M0 0 C-0.33 0.99 -0.66 1.98 -1 3 C-1.66 3 -2.32 3 -3 3 C-2.67 3.99 -2.34 4.98 -2 6 C-2.33 6.99 -2.66 7.98 -3 9 C-2.34 9.33 -1.68 9.66 -1 10 C-1 10.99 -1 11.98 -1 13 C-6.06998019 12.34580901 -10.41990777 10.1453591 -15 8 C-14 5 -14 5 -11.34765625 3.61328125 C-10.26355469 3.18402344 -9.17945313 2.75476562 -8.0625 2.3125 C-6.98097656 1.87550781 -5.89945313 1.43851563 -4.78515625 0.98828125 C-2 0 -2 0 0 0 Z " fill="#192948" transform="translate(60,58)"/>
<path d="M0 0 C0.99 0 1.98 0 3 0 C3 8.91 3 17.82 3 27 C1.68 27 0.36 27 -1 27 C-1.33 25.68 -1.66 24.36 -2 23 C-1.01 23 -0.02 23 1 23 C0.67 22.34 0.34 21.68 0 21 C-0.08400529 19.40552536 -0.10727467 17.80759455 -0.09765625 16.2109375 C-0.09443359 15.26992187 -0.09121094 14.32890625 -0.08789062 13.359375 C-0.07951172 12.37453125 -0.07113281 11.3896875 -0.0625 10.375 C-0.05798828 9.38242188 -0.05347656 8.38984375 -0.04882812 7.3671875 C-0.03702145 4.9113984 -0.020554 2.45572896 0 0 Z " fill="#0A1B38" transform="translate(177,125)"/>
<path d="M0 0 C1.45792884 -0.05399736 2.91642712 -0.09279177 4.375 -0.125 C5.18710938 -0.14820312 5.99921875 -0.17140625 6.8359375 -0.1953125 C9 0 9 0 11 2 C10.44444444 6.55555556 10.44444444 6.55555556 9 8 C7.48071962 8.07179964 5.95832518 8.08392007 4.4375 8.0625 C3.61121094 8.05347656 2.78492187 8.04445312 1.93359375 8.03515625 C1.29550781 8.02355469 0.65742187 8.01195312 0 8 C0 5.36 0 2.72 0 0 Z " fill="#F1F6F9" transform="translate(71,128)"/>
<path d="M0 0 C3.28791299 2.00133834 4.71413435 3.03245472 5.8125 6.75 C5.874375 7.4925 5.93625 8.235 6 9 C5.01 9 4.02 9 3 9 C2.4225 8.175 1.845 7.35 1.25 6.5 C-0.84379401 3.6236819 -0.84379401 3.6236819 -4.5625 3.5625 C-8.11557574 3.75550884 -8.11557574 3.75550884 -11 6 C-11.99 5.34 -12.98 4.68 -14 4 C-8.70772489 -0.31738233 -6.88135156 -1.51623 0 0 Z " fill="#303F59" transform="translate(146,125)"/>
<path d="M0 0 C0.99 0 1.98 0 3 0 C3 7.26 3 14.52 3 22 C2.01 22 1.02 22 0 22 C0 14.74 0 7.48 0 0 Z " fill="#0B1B3A" transform="translate(41,125)"/>
<path d="M0 0 C1.9375 0.375 1.9375 0.375 4 1 C5.54586876 4.09173752 5.29359521 6.59429552 5 10 C3.375 12.4375 3.375 12.4375 1 14 C-2.25 14.25 -2.25 14.25 -5 14 C-5 13.67 -5 13.34 -5 13 C-6.65 12.67 -8.3 12.34 -10 12 C-10 11.67 -10 11.34 -10 11 C-4.555 10.505 -4.555 10.505 1 10 C1.08004482 6.4780279 1.04005702 3.38018531 0 0 Z " fill="#1D2847" transform="translate(81,138)"/>
<path d="M0 0 C0.99 0 1.98 0 3 0 C3 5.94 3 11.88 3 18 C2.01 18 1.02 18 0 18 C-1.17794853 14.46615441 -1.13264317 11.59722447 -1.125 7.875 C-1.12886719 5.98394531 -1.12886719 5.98394531 -1.1328125 4.0546875 C-1 1 -1 1 0 0 Z " fill="#10223E" transform="translate(132,130)"/>
<path d="M0 0 C4.09885218 -0.47661072 5.55930365 -0.3448928 8.875 2.25 C11 5 11 5 11 9 C9.68 9 8.36 9 7 9 C6.6596875 7.824375 6.6596875 7.824375 6.3125 6.625 C5.21875 3.78125 5.21875 3.78125 2.375 2.6875 C1.59125 2.460625 0.8075 2.23375 0 2 C0 1.34 0 0.68 0 0 Z " fill="#28344B" transform="translate(114,125)"/>
<path d="M0 0 C2.29013653 3.4352048 2.17842973 4.985331 2 9 C1.67 7.68 1.34 6.36 1 5 C0.34 5 -0.32 5 -1 5 C-1.33 5.66 -1.66 6.32 -2 7 C-2.66 5.35 -3.32 3.7 -4 2 C-6.97 1.67 -9.94 1.34 -13 1 C-13 0.67 -13 0.34 -13 0 C-4.29821718 -2.6547812 -4.29821718 -2.6547812 0 0 Z " fill="#2E3A57" transform="translate(33,127)"/>
<path d="M0 0 C1.98 0.66 3.96 1.32 6 2 C5.4140625 8.15234375 5.4140625 8.15234375 5 10 C4.01 10.495 4.01 10.495 3 11 C0 4.5 0 4.5 0 0 Z " fill="#1D2C49" transform="translate(95,43)"/>
<path d="M0 0 C0.33 0 0.66 0 1 0 C1 2.64 1 5.28 1 8 C3.97 8 6.94 8 10 8 C10.33 9.32 10.66 10.64 11 12 C8.03 11.67 5.06 11.34 2 11 C2 10.34 2 9.68 2 9 C1.34 9 0.68 9 0 9 C0 6.03 0 3.06 0 0 Z " fill="#101E3F" transform="translate(18,130)"/>
<path d="M0 0 C0.33 0 0.66 0 1 0 C1.33 4.95 1.66 9.9 2 15 C1.01 14.34 0.02 13.68 -1 13 C-1.328125 10.21484375 -1.328125 10.21484375 -1.25 6.9375 C-1.23453125 5.85339844 -1.2190625 4.76929688 -1.203125 3.65234375 C-1 1 -1 1 0 0 Z " fill="#0E1F40" transform="translate(106,134)"/>
<path d="M0 0 C0.99 0 1.98 0 3 0 C3 3.63 3 7.26 3 11 C2.01 10.67 1.02 10.34 0 10 C0 6.7 0 3.4 0 0 Z " fill="#0E1B3C" transform="translate(149,134)"/>
<path d="M0 0 C1.98 0.66 3.96 1.32 6 2 C6 2.66 6 3.32 6 4 C3.36 4.99 0.72 5.98 -2 7 C-2 3.89448334 -1.4606285 2.64738916 0 0 Z " fill="#192946" transform="translate(140,62)"/>
<path d="M0 0 C1.875 0.3125 1.875 0.3125 4 1 C6 4 6 4 5.625 6.1875 C5.41875 6.785625 5.2125 7.38375 5 8 C2.5 5.6875 2.5 5.6875 0 3 C0 2.01 0 1.02 0 0 Z " fill="#1E2B47" transform="translate(146,127)"/>
<path d="M0 0 C0.99 0.66 1.98 1.32 3 2 C4.65549531 2.38499891 6.3222433 2.72793135 8 3 C7.01 3.495 7.01 3.495 6 4 C6 4.66 6 5.32 6 6 C3.125 5.6875 3.125 5.6875 0 5 C-0.66 4.01 -1.32 3.02 -2 2 C-1.34 2 -0.68 2 0 2 C0 1.34 0 0.68 0 0 Z " fill="#26324E" transform="translate(135,146)"/>
<path d="M0 0 C0.99 0 1.98 0 3 0 C3 0.99 3 1.98 3 3 C2.34 3 1.68 3 1 3 C1 8.28 1 13.56 1 19 C0.67 19 0.34 19 0 19 C0 12.73 0 6.46 0 0 Z " fill="#101C35" transform="translate(57,125)"/>
<path d="M0 0 C0 1.32 0 2.64 0 4 C-1.98 4.99 -1.98 4.99 -4 6 C-5.32 5.01 -6.64 4.02 -8 3 C-2.25 0 -2.25 0 0 0 Z " fill="#79869D" transform="translate(124,75)"/>
<path d="M0 0 C1.89213369 2.38573379 3.02391783 4.07175348 4 7 C2.35 6.67 0.7 6.34 -1 6 C-1.33 4.35 -1.66 2.7 -2 1 C-1.34 0.67 -0.68 0.34 0 0 Z " fill="#202F47" transform="translate(32,145)"/>
<path d="M0 0 C2 3 2 3 2 7 C0.68 7 -0.64 7 -2 7 C-2.33 5.68 -2.66 4.36 -3 3 C-2.01 3 -1.02 3 0 3 C0 2.01 0 1.02 0 0 Z " fill="#122440" transform="translate(178,145)"/>
<path d="M0 0 C0 0.66 0 1.32 0 2 C-0.99 2.33 -1.98 2.66 -3 3 C-3.33 3.66 -3.66 4.32 -4 5 C-4.66 5 -5.32 5 -6 5 C-6.33 4.01 -6.66 3.02 -7 2 C-2.25 0 -2.25 0 0 0 Z M-7 5 C-6.67 6.32 -6.34 7.64 -6 9 C-6.66 8.67 -7.32 8.34 -8 8 C-7.67 7.01 -7.34 6.02 -7 5 Z " fill="#1E2D4E" transform="translate(89,46)"/>
<path d="M0 0 C0.66 0 1.32 0 2 0 C2 1.65 2 3.3 2 5 C0.02 5.99 0.02 5.99 -2 7 C-2 3.89448334 -1.4606285 2.64738916 0 0 Z " fill="#0D1E37" transform="translate(32,132)"/>
<path d="M0 0 C-0.33 1.32 -0.66 2.64 -1 4 C-2.32 4.33 -3.64 4.66 -5 5 C-5 4.34 -5 3.68 -5 3 C-5.66 2.67 -6.32 2.34 -7 2 C-2.25 0 -2.25 0 0 0 Z " fill="#D9DEE7" transform="translate(121,90)"/>
<path d="M0 0 C0.33 1.32 0.66 2.64 1 4 C0.01 4.66 -0.98 5.32 -2 6 C-2.99 5.34 -3.98 4.68 -5 4 C-3.35 2.68 -1.7 1.36 0 0 Z " fill="#243049" transform="translate(137,125)"/>
<path d="M0 0 C0.66 0.99 1.32 1.98 2 3 C1.34 3.66 0.68 4.32 0 5 C-0.66 4.34 -1.32 3.68 -2 3 C-4.32275177 2.59952556 -6.65739357 2.2602896 -9 2 C-9 1.67 -9 1.34 -9 1 C-4.545 0.505 -4.545 0.505 0 0 Z " fill="#3A4567" transform="translate(80,135)"/>
<path d="M0 0 C0.33 0.99 0.66 1.98 1 3 C0 4 -1 5 -2 6 C-2.99 6 -3.98 6 -5 6 C-5 5.01 -5 4.02 -5 3 C-2.5 1.3125 -2.5 1.3125 0 0 Z " fill="#9299AA" transform="translate(58,71)"/>
<path d="M0 0 C1.65 0 3.3 0 5 0 C4.01 0.33 3.02 0.66 2 1 C2 1.66 2 2.32 2 3 C2.99 3.33 3.98 3.66 5 4 C3.02 4 1.04 4 -1 4 C-0.67 2.68 -0.34 1.36 0 0 Z " fill="#525E77" transform="translate(112,124)"/>
<path d="M0 0 C0.66 0 1.32 0 2 0 C2.33 1.65 2.66 3.3 3 5 C1.68 5.99 0.36 6.98 -1 8 C-0.67 5.36 -0.34 2.72 0 0 Z " fill="#E1E9F1" transform="translate(93,43)"/>
</svg>
