<?xml version="1.0" encoding="UTF-8"?>
<svg version="1.1" xmlns="http://www.w3.org/2000/svg" width="400" height="400">
<path d="M0 0 C132 0 264 0 400 0 C400 132 400 264 400 400 C268 400 136 400 0 400 C0 268 0 136 0 0 Z " fill="#245698" transform="translate(0,0)"/>
<path d="M0 0 C10.89 0 21.78 0 33 0 C33.02578125 5.09308594 33.0515625 10.18617187 33.078125 15.43359375 C33.1033127 18.67387738 33.12966025 21.91406945 33.16015625 25.15429688 C33.20837584 30.28930931 33.25246361 35.42410958 33.27099609 40.55932617 C33.28621955 44.70281988 33.32076461 48.8457559 33.36830902 52.98900032 C33.38306451 54.56405838 33.39103765 56.13919609 33.39188385 57.71432304 C33.40268042 67.74057016 33.83702803 75.85106098 40.375 83.9375 C46.23559195 88.54225082 52.78681036 88.82874945 60 88 C65.31697928 86.36332584 69.0381998 83.78444647 72 79 C73.83088207 74.42519688 74.26785384 70.53008 74.31884766 65.61767578 C74.32889328 64.90478897 74.3389389 64.19190216 74.34928894 63.45741272 C74.37998012 61.12005358 74.39711646 58.78280823 74.4140625 56.4453125 C74.43278551 54.81720002 74.45235976 53.18909712 74.4727478 51.56100464 C74.52395545 47.29005601 74.56364178 43.01907597 74.60089111 38.74798584 C74.64806302 33.61580193 74.70961192 28.48377253 74.76873779 23.35171509 C74.85681144 15.56787282 74.92667471 7.78405809 75 0 C85.89 0 96.78 0 108 0 C108.16043524 18.11581222 108.16043524 18.11581222 108.1953125 25.92773438 C108.21908502 31.2269727 108.2469914 36.52593067 108.30175781 41.82495117 C108.3457023 46.10439532 108.36923782 50.38353821 108.37950897 54.66319084 C108.38681428 56.28362702 108.40107541 57.90404954 108.42292023 59.52435493 C108.62591469 75.22732234 106.66191275 91.25725104 95.77734375 103.5 C83.03565701 115.77725124 67.14589021 118.43998872 50.08203125 118.13671875 C36.54718816 117.74243877 23.32055761 114.0447565 12.9375 104.875 C1.28071835 91.44369516 -0.46295133 74.40278522 -0.29296875 57.421875 C-0.2873602 55.75751125 -0.28309607 54.09314248 -0.28010559 52.42877197 C-0.26875572 48.08866235 -0.23937587 43.74886311 -0.20599365 39.40887451 C-0.16962396 34.17992057 -0.15608457 28.95086174 -0.13863373 23.72181702 C-0.10973064 15.81433007 -0.05217573 7.90752158 0 0 Z " fill="#FACF07" transform="translate(59,59)"/>
<path d="M0 0 C9.87383778 8.55556838 9.87383778 8.55556838 11 14 C10.5467334 14.33733154 10.0934668 14.67466309 9.62646484 15.0222168 C7.54133644 16.5755657 5.45816097 18.13151374 3.375 19.6875 C2.66214844 20.21794922 1.94929688 20.74839844 1.21484375 21.29492188 C0.51230469 21.82021484 -0.19023437 22.34550781 -0.9140625 22.88671875 C-1.60918945 23.40540527 -2.30431641 23.9240918 -3.02050781 24.45849609 C-4.85389055 25.88621916 -6.55563198 27.39435795 -8.2734375 28.95703125 C-11 31 -11 31 -13.1328125 31.0234375 C-15.36879738 29.79785583 -17.02726579 28.38368678 -18.875 26.625 C-25.67794475 20.46574761 -32.2628909 18.5293957 -41.3125 18.6640625 C-49.03531649 19.62941456 -54.61090501 23.96808991 -59.52734375 29.7421875 C-65.20737065 38.45055765 -65.32778159 47.90628168 -64 58 C-61.4650968 66.50361144 -56.89956814 72.72385684 -49.1640625 77.01953125 C-42.60197465 79.95238276 -35.64405484 80.28452933 -28.875 77.8984375 C-22.49303119 74.91486708 -17.53391202 71.39599388 -13 66 C-7.80317174 67.65635961 -3.74220358 70.84011209 0.625 74 C2.13787092 75.08354268 3.65088596 76.16688416 5.1640625 77.25 C5.82873535 77.72953125 6.4934082 78.2090625 7.17822266 78.703125 C8.76440749 79.83228794 10.37995913 80.91997275 12 82 C9.12142864 91.04460207 -0.3583972 98.32427102 -8.44921875 102.7890625 C-22.9199129 109.65876416 -41.96219369 112.46422635 -57.44140625 107.08984375 C-58.28574219 106.73019531 -59.13007813 106.37054688 -60 106 C-61.10214844 105.54753906 -62.20429688 105.09507812 -63.33984375 104.62890625 C-77.46565655 98.23317994 -88.91214787 87.98233525 -94.49609375 73.18359375 C-100.77827361 55.42481199 -100.71366805 37.84811937 -92.75 20.625 C-84.40311155 5.50419297 -71.29405281 -4.3531901 -55.0625 -9.875 C-36.71634041 -14.30246915 -15.22098693 -11.35670252 0 0 Z " fill="#FACF07" transform="translate(281,68)"/>
<path d="M0 0 C10.56 0 21.12 0 32 0 C32 38.28 32 76.56 32 116 C21.44 116 10.88 116 0 116 C0 77.72 0 39.44 0 0 Z " fill="#FCD006" transform="translate(311,59)"/>
<path d="M0 0 C1.32 0 2.64 0 4 0 C4.33 0.99 4.66 1.98 5 3 C5.474375 2.505 5.94875 2.01 6.4375 1.5 C10.23064985 -0.7203804 13.7036758 -0.56874417 18 0 C21.75922023 1.63444358 23.86499998 3.52762638 26 7 C26.3984375 9.83984375 26.3984375 9.83984375 26.375 12.9375 C26.38273437 13.95714844 26.39046875 14.97679687 26.3984375 16.02734375 C25.94554167 19.40630187 25.01360791 21.27065469 23 24 C18.63567018 26.87649011 15.18891206 27.66040699 10 27 C7.0625 25 7.0625 25 5 23 C4.67 26.96 4.34 30.92 4 35 C2.68 35 1.36 35 0 35 C0 23.45 0 11.9 0 0 Z " fill="#EEC80F" transform="translate(95,210)"/>
<path d="M0 0 C14 0 14 0 17.6875 1.6875 C21.49185896 5.49185896 23.15977034 8.09235476 23.375 13.5 C23.22429812 17.45101007 22.57937241 19.88696433 20 23 C12.68151715 29.42598494 11.9613631 28 0 28 C0 18.76 0 9.52 0 0 Z " fill="#265797" transform="translate(32,205)"/>
<path d="M0 0 C3.07017822 1.25313397 4.40483775 2.02038023 6.10888672 4.82519531 C7.1014974 7.24770926 7.23055333 8.93905392 7.1953125 11.546875 C7.18886719 12.39121094 7.18242187 13.23554688 7.17578125 14.10546875 C7.15902344 14.97816406 7.14226562 15.85085937 7.125 16.75 C7.11597656 17.63816406 7.10695312 18.52632812 7.09765625 19.44140625 C7.07414577 21.62788058 7.04128499 23.81380094 7 26 C5.68 26.33 4.36 26.66 3 27 C2.67 26.01 2.34 25.02 2 24 C1.34 24.495 0.68 24.99 0 25.5 C-3.83730209 27.41865105 -6.78789015 27.7303255 -11 27 C-14 25.5625 -14 25.5625 -16 23 C-16.76287445 19.82620936 -16.79669277 17.16932525 -16 14 C-13.32518686 11.1140174 -11.39653475 10.14723157 -7.48046875 9.734375 C-3.68611122 9.66770986 -0.61785315 9.79404895 3 11 C1.93469849 7.95071844 1.93469849 7.95071844 0 5 C-4.46180063 3.4789316 -8.42360988 4.17624978 -13 5 C-13 3.68 -13 2.36 -13 1 C-9.07713554 -0.96143223 -4.28670656 -0.34690111 0 0 Z " fill="#E9C513" transform="translate(142,210)"/>
<path d="M0 0 C3.07365786 1.80803404 4.43019732 2.86039464 6 6 C6.08400529 7.59447464 6.10727467 9.19240545 6.09765625 10.7890625 C6.09443359 11.73007812 6.09121094 12.67109375 6.08789062 13.640625 C6.07951172 14.62546875 6.07113281 15.6103125 6.0625 16.625 C6.05798828 17.61757813 6.05347656 18.61015625 6.04882812 19.6328125 C6.03702145 22.0886016 6.020554 24.54427104 6 27 C4.68 27 3.36 27 2 27 C1.67 26.01 1.34 25.02 1 24 C0.34 24.495 -0.32 24.99 -1 25.5 C-4.83250973 27.41625486 -7.79230122 27.73804394 -12 27 C-15 25.5 -15 25.5 -17 23 C-17.58383318 19.65622815 -17.84132669 18.12404395 -17 15 C-14.84190829 12.20031346 -14.11662878 11.26557601 -11 10 C-6.67494623 9.47685707 -1.97763219 9.01118391 2 11 C0.75023244 7.34683329 0.32901247 6.21934164 -3 4 C-5.75387627 3.97522641 -5.75387627 3.97522641 -8.6875 4.375 C-9.68136719 4.48585938 -10.67523438 4.59671875 -11.69921875 4.7109375 C-12.45847656 4.80632812 -13.21773438 4.90171875 -14 5 C-14.33 4.01 -14.66 3.02 -15 2 C-10.3413446 -1.10577027 -5.45635205 -0.61853384 0 0 Z " fill="#EBC711" transform="translate(93,269)"/>
<path d="M0 0 C18 0 18 0 26 4 C30.2909419 8.2909419 31.31980218 11.0033484 31.5 17.0625 C31.22251557 23.06966298 30.13354742 26.86645258 25.8125 31.1875 C16.83085874 36.97566881 11.64017099 36 0 36 C0 24.12 0 12.24 0 0 Z M4 4 C4 13.24 4 22.48 4 32 C15.35491258 32.90197131 15.35491258 32.90197131 23 28 C23.598125 27.484375 24.19625 26.96875 24.8125 26.4375 C27.50614482 23.17677206 27.33351862 19.30330625 27.28125 15.28515625 C26.84050167 11.70407611 25.35179501 9.66960515 23 7 C16.97100849 2.7995099 16.97100849 2.7995099 4 4 Z " fill="#F0C90E" transform="translate(28,201)"/>
<path d="M0 0 C3.50252011 2.04313673 5.77361702 4.09787233 7 8 C7 10.31 7 12.62 7 15 C0.07 15 -6.86 15 -14 15 C-10.66666667 20.83333333 -10.66666667 20.83333333 -7 23 C-2.37842961 23.49165642 -0.56110309 22.82432314 3 20 C3.99 20.33 4.98 20.66 6 21 C5.04020277 23.39949307 4.42925433 24.73612938 2.1953125 26.109375 C-1.52242436 27.61763835 -5.05944083 27.54729988 -9 27 C-13.91624028 24.63292134 -16.18602527 22.13959507 -18 17 C-18.56138108 11.76044321 -17.85632372 8.43222647 -15 4 C-10.80198458 -0.83407837 -6.02579944 -0.99108543 0 0 Z " fill="#F0C90E" transform="translate(82,210)"/>
<path d="M0 0 C3.59127675 1.40528221 4.72193236 2.56851574 6.8125 5.8125 C8 9 8 9 8 15 C1.07 15 -5.86 15 -13 15 C-10.69513278 20.62794262 -10.69513278 20.62794262 -8.25 22.4375 C-3.41143308 23.64714173 0.72189882 22.21827469 5 20 C5.66 20.33 6.32 20.66 7 21 C6.02703346 23.65354511 5.34207577 24.79877896 2.875 26.25 C-2.55412825 27.66629433 -6.35664461 27.83718105 -11.3125 25.3125 C-14.66981719 22.42364567 -16.64419083 20.37206115 -17.31640625 15.890625 C-17.65569788 9.36746975 -15.66403089 5.96003432 -11.3125 1.125 C-7.61039159 -0.67602571 -4.03363561 -0.51953804 0 0 Z " fill="#F1CA0D" transform="translate(285,328)"/>
<path d="M0 0 C3.59127675 1.40528221 4.72193236 2.56851574 6.8125 5.8125 C8 9 8 9 8 15 C1.07 15 -5.86 15 -13 15 C-10.69513278 20.62794262 -10.69513278 20.62794262 -8.25 22.4375 C-3.41143308 23.64714173 0.72189882 22.21827469 5 20 C5.66 20.33 6.32 20.66 7 21 C6.02703346 23.65354511 5.34207577 24.79877896 2.875 26.25 C-2.55412825 27.66629433 -6.35664461 27.83718105 -11.3125 25.3125 C-14.66981719 22.42364567 -16.64419083 20.37206115 -17.31640625 15.890625 C-17.65569788 9.36746975 -15.66403089 5.96003432 -11.3125 1.125 C-7.61039159 -0.67602571 -4.03363561 -0.51953804 0 0 Z " fill="#F1CA0D" transform="translate(257,210)"/>
<path d="M0 0 C3.16411529 1.68931579 5.29733203 4.00987695 7.375 6.9375 C8 9 8 9 8 15 C1.07 15 -5.86 15 -13 15 C-10.66151858 20.91731018 -10.66151858 20.91731018 -7 23 C-2.14484351 23.53946183 0.80058648 22.39966487 5 20 C5 24 5 24 3.30078125 25.71484375 C-0.69762509 27.94824899 -4.56432743 27.85720053 -9 27 C-12.97727594 24.72522707 -15.54387347 22.36837958 -17 18 C-17.40162118 13.44314431 -17.54057047 9.33720064 -15.8125 5.0625 C-11.36882283 0.00590184 -6.53631698 -1.24282083 0 0 Z " fill="#F2CB0D" transform="translate(199,328)"/>
<path d="M0 0 C3.16411529 1.68931579 5.29733203 4.00987695 7.375 6.9375 C8 9 8 9 8 15 C1.07 15 -5.86 15 -13 15 C-10.66151858 20.91731018 -10.66151858 20.91731018 -7 23 C-2.14484351 23.53946183 0.80058648 22.39966487 5 20 C5 24 5 24 3.30078125 25.71484375 C-0.69762509 27.94824899 -4.56432743 27.85720053 -9 27 C-12.97727594 24.72522707 -15.54387347 22.36837958 -17 18 C-17.40162118 13.44314431 -17.54057047 9.33720064 -15.8125 5.0625 C-11.36882283 0.00590184 -6.53631698 -1.24282083 0 0 Z " fill="#F2CB0D" transform="translate(305,269)"/>
<path d="M0 0 C1.32 0 2.64 0 4 0 C4.33 0.99 4.66 1.98 5 3 C5.495 2.505 5.99 2.01 6.5 1.5 C9.94256811 -0.56554086 13.12546569 -0.59844292 17 0 C20 1.5 20 1.5 22 3 C22.474375 2.505 22.94875 2.01 23.4375 1.5 C27.11167123 -0.65073438 30.85971977 -1.06125227 35 0 C37.765625 1.82421875 37.765625 1.82421875 40 5 C40.60515179 8.79108698 40.47163166 12.48599557 40.3125 16.3125 C40.28994141 17.33923828 40.26738281 18.36597656 40.24414062 19.42382812 C40.18537575 21.9507179 40.10327849 24.47460255 40 27 C38.68 26.67 37.36 26.34 36 26 C35.98541748 25.40461426 35.97083496 24.80922852 35.95581055 24.19580078 C35.88145656 21.50486949 35.78475813 18.81519667 35.6875 16.125 C35.65366211 14.71927734 35.65366211 14.71927734 35.61914062 13.28515625 C35.58369141 12.38925781 35.54824219 11.49335938 35.51171875 10.5703125 C35.48553467 9.74289551 35.45935059 8.91547852 35.43237305 8.06298828 C35.16903363 5.60672068 35.16903363 5.60672068 32 4 C28.42823885 4.08167489 28.42823885 4.08167489 25 5 C22.94872156 8.07691766 22.72739128 8.93644999 22.5859375 12.44921875 C22.54726563 13.29677734 22.50859375 14.14433594 22.46875 15.01757812 C22.42234375 16.33918945 22.42234375 16.33918945 22.375 17.6875 C22.33632813 18.58017578 22.29765625 19.47285156 22.2578125 20.39257812 C22.16359782 22.5948462 22.07798412 24.79710722 22 27 C20.68 26.67 19.36 26.34 18 26 C17.98541748 25.44014404 17.97083496 24.88028809 17.95581055 24.3034668 C17.88128648 21.76411863 17.78464419 19.22607922 17.6875 16.6875 C17.66494141 15.80642578 17.64238281 14.92535156 17.61914062 14.01757812 C17.5659668 12.74624023 17.5659668 12.74624023 17.51171875 11.44921875 C17.48553467 10.66893311 17.45935059 9.88864746 17.43237305 9.0847168 C16.89748415 6.50571269 16.07662981 5.582209 14 4 C10.87585686 3.68758569 9.00174224 3.99941925 6 5 C4.98533985 7.72307331 4.82790142 10.44197161 4.68359375 13.328125 C4.64169922 14.12734375 4.59980469 14.9265625 4.55664062 15.75 C4.49766602 16.9875 4.49766602 16.9875 4.4375 18.25 C4.39431641 19.09046875 4.35113281 19.9309375 4.30664062 20.796875 C4.20091457 22.86440671 4.09998705 24.93218281 4 27 C2.68 26.67 1.36 26.34 0 26 C0 17.42 0 8.84 0 0 Z " fill="#E8C513" transform="translate(318,269)"/>
<path d="M0 0 C1.32 0 2.64 0 4 0 C4.33 0.99 4.66 1.98 5 3 C5.495 2.505 5.99 2.01 6.5 1.5 C9.94256811 -0.56554086 13.12546569 -0.59844292 17 0 C20 1.5 20 1.5 22 3 C22.474375 2.505 22.94875 2.01 23.4375 1.5 C27.11167123 -0.65073438 30.85971977 -1.06125227 35 0 C37.765625 1.82421875 37.765625 1.82421875 40 5 C40.60515179 8.79108698 40.47163166 12.48599557 40.3125 16.3125 C40.28994141 17.33923828 40.26738281 18.36597656 40.24414062 19.42382812 C40.18537575 21.9507179 40.10327849 24.47460255 40 27 C38.68 26.67 37.36 26.34 36 26 C35.98541748 25.40461426 35.97083496 24.80922852 35.95581055 24.19580078 C35.88145656 21.50486949 35.78475813 18.81519667 35.6875 16.125 C35.65366211 14.71927734 35.65366211 14.71927734 35.61914062 13.28515625 C35.58369141 12.38925781 35.54824219 11.49335938 35.51171875 10.5703125 C35.48553467 9.74289551 35.45935059 8.91547852 35.43237305 8.06298828 C35.16903363 5.60672068 35.16903363 5.60672068 32 4 C28.42823885 4.08167489 28.42823885 4.08167489 25 5 C22.94872156 8.07691766 22.72739128 8.93644999 22.5859375 12.44921875 C22.54726562 13.29677734 22.50859375 14.14433594 22.46875 15.01757812 C22.42234375 16.33918945 22.42234375 16.33918945 22.375 17.6875 C22.33632812 18.58017578 22.29765625 19.47285156 22.2578125 20.39257812 C22.16359782 22.5948462 22.07798412 24.79710722 22 27 C20.68 26.67 19.36 26.34 18 26 C17.98541748 25.44014404 17.97083496 24.88028809 17.95581055 24.3034668 C17.88128648 21.76411863 17.78464419 19.22607922 17.6875 16.6875 C17.66494141 15.80642578 17.64238281 14.92535156 17.61914062 14.01757812 C17.5659668 12.74624023 17.5659668 12.74624023 17.51171875 11.44921875 C17.48553467 10.66893311 17.45935059 9.88864746 17.43237305 9.0847168 C16.89748415 6.50571269 16.07662981 5.582209 14 4 C10.87585686 3.68758569 9.00174224 3.99941925 6 5 C4.98533985 7.72307331 4.82790142 10.44197161 4.68359375 13.328125 C4.64169922 14.12734375 4.59980469 14.9265625 4.55664062 15.75 C4.49766602 16.9875 4.49766602 16.9875 4.4375 18.25 C4.39431641 19.09046875 4.35113281 19.9309375 4.30664062 20.796875 C4.20091457 22.86440671 4.09998705 24.93218281 4 27 C2.68 26.67 1.36 26.34 0 26 C0 17.42 0 8.84 0 0 Z " fill="#E8C513" transform="translate(194,210)"/>
<path d="M0 0 C8.58 0 17.16 0 26 0 C26 1.32 26 2.64 26 4 C19.07 4 12.14 4 5 4 C5 7.96 5 11.92 5 16 C11.27 16 17.54 16 24 16 C24 16.99 24 17.98 24 19 C17.4 19 10.8 19 4 19 C4 23.29 4 27.58 4 32 C11.26 32 18.52 32 26 32 C26 32.99 26 33.98 26 35 C17.42 35 8.84 35 0 35 C0 23.45 0 11.9 0 0 Z " fill="#E8C513" transform="translate(45,260)"/>
<path d="M0 0 C1.17546556 0.65102708 2.34561699 1.31228246 3.5 2 C2.84 3.32 2.18 4.64 1.5 6 C0.675 5.505 -0.15 5.01 -1 4.5 C-5.33557988 2.64189434 -7.82224514 2.61657747 -12.5 3 C-13.49 3.66 -14.48 4.32 -15.5 5 C-15.75015873 8.58357241 -15.75015873 8.58357241 -15.5 12 C-14.79875 12.17015625 -14.0975 12.3403125 -13.375 12.515625 C-7.28777656 14.0705136 -1.95791509 15.86675245 3.5 19 C5.10847182 22.21694364 5.11309149 25.52137222 4.5 29 C1.77650554 32.36853262 -0.43372993 34.75650016 -4.8203125 35.2734375 C-11.83585546 35.52748223 -16.00885868 34.4055002 -21.5 30 C-21.005 28.515 -21.005 28.515 -20.5 27 C-15.75 28.875 -15.75 28.875 -13.5 30 C-11.85744209 30.12114921 -10.20947522 30.17540767 -8.5625 30.1875 C-7.68722656 30.20167969 -6.81195313 30.21585937 -5.91015625 30.23046875 C-3.23755665 30.16663349 -3.23755665 30.16663349 -0.5 28 C-0.2497843 24.91634129 -0.2497843 24.91634129 -0.5 22 C-4.3631946 20.27389177 -8.13503121 18.78360815 -12.1875 17.5625 C-15.84721105 16.34467806 -18.34822894 15.36798949 -20.5 12 C-21.1059496 7.83409652 -20.9868705 5.78247045 -18.75 2.1875 C-13.14190311 -3.26481642 -6.84420428 -3.42210214 0 0 Z " fill="#EDC810" transform="translate(132.5,320)"/>
<path d="M0 0 C3.125 1.75 3.125 1.75 4.0625 3.9375 C4.083125 4.535625 4.10375 5.13375 4.125 5.75 C1.125 5.75 1.125 5.75 -1.125 4.75 C-4.54736863 3.50550232 -7.25740415 3.48202994 -10.875 3.75 C-11.865 4.41 -12.855 5.07 -13.875 5.75 C-14.375 8.75 -14.375 8.75 -13.875 11.75 C-9.85057618 14.43294922 -5.64547053 15.29792721 -1.00390625 16.5546875 C2.34918336 17.83564308 3.99368493 18.87690371 6.125 21.75 C6.61936095 24.9050227 6.10456727 27.72224661 5.125 30.75 C1.54184891 34.42502676 -1.38126916 35.91926917 -6.4375 36.125 C-12.24587566 36.10809061 -16.14885972 33.94642338 -20.875 30.75 C-19.885 29.265 -19.885 29.265 -18.875 27.75 C-14.125 29.625 -14.125 29.625 -11.875 30.75 C-10.23357459 30.89640501 -8.5851859 30.97096589 -6.9375 31 C-5.62458984 31.03867187 -5.62458984 31.03867187 -4.28515625 31.078125 C-1.82569195 30.94311358 -1.82569195 30.94311358 -0.0703125 29.390625 C1.34574414 27.74965518 1.34574414 27.74965518 1.3125 25.25 C0.26468071 22.35195391 0.26468071 22.35195391 -3.4375 21.125 C-4.91154188 20.65044335 -6.39105691 20.19262441 -7.875 19.75 C-15.04753073 17.44817719 -15.04753073 17.44817719 -17.875 15.0625 C-19.36802899 11.60987045 -19.66277851 8.39257217 -18.875 4.75 C-13.83807873 -1.64825135 -7.58765524 -2.87269252 0 0 Z " fill="#EEC810" transform="translate(207.875,260.25)"/>
<path d="M0 0 C1.32 0 2.64 0 4 0 C4.33 4.29 4.66 8.58 5 13 C5.99 12.34 6.98 11.68 8 11 C11.06526351 10.45468158 13.93408329 10.45674107 17 11 C19.75569447 13.18159145 21.43588747 14.87177494 23 18 C23.08372659 19.52148326 23.10730027 21.04655778 23.09765625 22.5703125 C23.09443359 23.46621094 23.09121094 24.36210937 23.08789062 25.28515625 C23.07951172 26.22230469 23.07113281 27.15945313 23.0625 28.125 C23.05798828 29.06988281 23.05347656 30.01476562 23.04882812 30.98828125 C23.03702357 33.32558387 23.02055759 35.66276061 23 38 C21.68 38 20.36 38 19 38 C18.98598145 37.16807129 18.98598145 37.16807129 18.97167969 36.31933594 C18.91784278 33.79533519 18.83422746 31.27316186 18.75 28.75 C18.73582031 27.87730469 18.72164062 27.00460937 18.70703125 26.10546875 C18.52554483 20.91647991 18.52554483 20.91647991 16.1796875 16.3828125 C13.91949766 14.66132922 13.91949766 14.66132922 10.375 15.125 C6.95457945 15.70740714 6.95457945 15.70740714 5 18 C4.63105418 20.03060659 4.63105418 20.03060659 4.5859375 22.3515625 C4.54726562 23.20234375 4.50859375 24.053125 4.46875 24.9296875 C4.4378125 25.81914062 4.406875 26.70859375 4.375 27.625 C4.31699219 28.97078125 4.31699219 28.97078125 4.2578125 30.34375 C4.16340643 32.5622927 4.07783252 34.78082403 4 37 C2.02 37.495 2.02 37.495 0 38 C0 25.46 0 12.92 0 0 Z " fill="#E2C118" transform="translate(145,258)"/>
<path d="M0 0 C4.29980658 2.38878143 4.29980658 2.38878143 6 5 C6.80768635 8.49424591 6.75186429 11.49895254 6 15 C3.99802059 18.12809283 2.71400832 19.62325758 -0.97265625 20.43359375 C-4.54043862 20.65366257 -6.59809173 20.3091602 -9.4375 18.125 C-12.28691516 14.24979538 -12.67886511 10.7249012 -12 6 C-8.68259295 0.80272896 -6.16380285 -0.71120802 0 0 Z " fill="#285896" transform="translate(111,213)"/>
<path d="M0 0 C4.40830916 2.16407904 7.12843553 4.42506462 9 9 C9.72310712 15.40466307 8.78233196 18.7865154 5 24 C1.37110107 27.21416763 -2.09804454 27.5192447 -6.78515625 27.35546875 C-11.05656404 26.66993417 -13.80667817 24.32495925 -16.62890625 21.19140625 C-19.18312387 17.10902424 -18.82826593 12.62394128 -18 8 C-13.64377186 0.36660941 -8.40391848 -0.92946564 0 0 Z M-13 7 C-14.74601232 10.49202465 -14.55838804 14.18982279 -14 18 C-11.96994762 21.20879247 -10.57700553 22.62927537 -6.83984375 23.5078125 C-2.29546348 23.85679663 -0.51575575 23.43155073 3.0625 20.4375 C5.32738586 16.41915413 5.80968831 14.53425456 5 10 C3.19232307 7.0359415 1.15604655 4.57802327 -2 3 C-7.11519005 2.43164555 -9.32841583 3.43331824 -13 7 Z " fill="#EEC80F" transform="translate(351,210)"/>
<path d="M0 0 C1.32 0 2.64 0 4 0 C4.33 0.99 4.66 1.98 5 3 C5.474375 2.505 5.94875 2.01 6.4375 1.5 C10.22778745 -0.71870485 13.71380595 -0.82514966 18 0 C21.57059651 2.67794738 23.2079765 4.66695663 24 9 C24.07708723 10.36800819 24.10803609 11.73923592 24.09765625 13.109375 C24.09443359 13.86347656 24.09121094 14.61757813 24.08789062 15.39453125 C24.07951172 16.17183594 24.07113281 16.94914062 24.0625 17.75 C24.05798828 18.54277344 24.05347656 19.33554687 24.04882812 20.15234375 C24.03708565 22.10159508 24.01915146 24.05080738 24 26 C22.0625 26.5625 22.0625 26.5625 20 27 C18.46157272 25.46157272 18.83777411 23.99174497 18.7890625 21.8515625 C18.76070312 21.01109375 18.73234375 20.170625 18.703125 19.3046875 C18.65127541 17.52624646 18.60693526 15.74756974 18.5703125 13.96875 C18.539375 13.12570312 18.5084375 12.28265625 18.4765625 11.4140625 C18.45674316 10.6401416 18.43692383 9.8662207 18.41650391 9.06884766 C17.89561012 6.48147722 17.08441818 5.58223772 15 4 C12.04279372 3.33319632 12.04279372 3.33319632 9 4 C5.80931395 6.90009534 4.74622028 9.2351195 4.390625 13.42578125 C4.32470408 15.05402794 4.27829153 16.68316504 4.25 18.3125 C4.22035156 19.14845703 4.19070312 19.98441406 4.16015625 20.84570312 C4.08983893 22.89662485 4.04261027 24.94831562 4 27 C2.68 26.67 1.36 26.34 0 26 C0 17.42 0 8.84 0 0 Z " fill="#DEBF1A" transform="translate(212,328)"/>
<path d="M0 0 C2.23046875 -0.06640625 2.23046875 -0.06640625 5 1 C6.86288492 3.83618556 8.05682922 6.91974903 9.3125 10.0625 C9.67150391 10.91650391 10.03050781 11.77050781 10.40039062 12.65039062 C11.2844598 14.76036905 12.14989433 16.87616164 13 19 C15.76825678 15.71370686 17.14696194 12.39199914 18.625 8.375 C20.95652174 2.08695652 20.95652174 2.08695652 22 0 C23.32 0 24.64 0 26 0 C23.77747349 6.87284473 21.30282903 13.60435735 18.625 20.3125 C18.25117188 21.28767578 17.87734375 22.26285156 17.4921875 23.26757812 C13.88831791 32.25873906 13.88831791 32.25873906 9 35 C5.83454549 35.31033868 3.85324437 35.42662219 1 34 C1.33 33.01 1.66 32.02 2 31 C3.7015625 30.7834375 3.7015625 30.7834375 5.4375 30.5625 C8.80777201 30.38828522 8.80777201 30.38828522 10 29 C9.69879969 22.1882392 7.49251479 17.15081783 4.4375 11.125 C3.59966147 9.44169467 2.76486427 7.756871 1.93359375 6.0703125 C1.56290771 5.33570801 1.19222168 4.60110352 0.81030273 3.84423828 C0 2 0 2 0 0 Z " fill="#EBC611" transform="translate(217,269)"/>
<path d="M0 0 C3.49093716 0.74050182 5.08755999 2.70354554 7.19140625 5.46484375 C8.39170533 7.86544192 8.30600368 9.35845024 8.2890625 12.03515625 C8.28583984 12.93105469 8.28261719 13.82695312 8.27929688 14.75 C8.27091797 15.68714844 8.26253906 16.62429687 8.25390625 17.58984375 C8.24939453 18.53472656 8.24488281 19.47960937 8.24023438 20.453125 C8.22842982 22.79042762 8.21196384 25.12760436 8.19140625 27.46484375 C6.87140625 27.46484375 5.55140625 27.46484375 4.19140625 27.46484375 C4.1773877 26.63291504 4.1773877 26.63291504 4.16308594 25.78417969 C4.10924903 23.26017894 4.02563371 20.73800561 3.94140625 18.21484375 C3.92722656 17.34214844 3.91304688 16.46945313 3.8984375 15.5703125 C3.71695108 10.38132366 3.71695108 10.38132366 1.37109375 5.84765625 C-0.88909609 4.12617297 -0.88909609 4.12617297 -4.43359375 4.58984375 C-7.8540143 5.17225089 -7.8540143 5.17225089 -9.80859375 7.46484375 C-10.17753957 9.49545034 -10.17753957 9.49545034 -10.22265625 11.81640625 C-10.28066406 13.09257812 -10.28066406 13.09257812 -10.33984375 14.39453125 C-10.37078125 15.28398437 -10.40171875 16.1734375 -10.43359375 17.08984375 C-10.49160156 18.435625 -10.49160156 18.435625 -10.55078125 19.80859375 C-10.64518732 22.02713645 -10.73076123 24.24566778 -10.80859375 26.46484375 C-12.12859375 26.79484375 -13.44859375 27.12484375 -14.80859375 27.46484375 C-14.80859375 18.88484375 -14.80859375 10.30484375 -14.80859375 1.46484375 C-13.81859375 1.46484375 -12.82859375 1.46484375 -11.80859375 1.46484375 C-11.47859375 2.45484375 -11.14859375 3.44484375 -10.80859375 4.46484375 C-10.09703125 3.47484375 -10.09703125 3.47484375 -9.37109375 2.46484375 C-6.11214269 -0.07872781 -4.04744956 -0.16669891 0 0 Z " fill="#EBC612" transform="translate(285.80859375,209.53515625)"/>
<path d="M0 0 C1.65 0 3.3 0 5 0 C5 2.64 5 5.28 5 8 C7.64 8 10.28 8 13 8 C13 9.32 13 10.64 13 12 C10.36 12 7.72 12 5 12 C5.33 17.94 5.66 23.88 6 30 C8.31 30.33 10.62 30.66 13 31 C13 31.99 13 32.98 13 34 C9.95016004 35.52491998 7.3576631 35.23562548 4 35 C1.38406847 33.16884793 1.03010545 32.09031634 0 29 C-0.08021999 27.59175107 -0.10765977 26.18002769 -0.09765625 24.76953125 C-0.09443359 23.96708984 -0.09121094 23.16464844 -0.08789062 22.33789062 C-0.07951172 21.50451172 -0.07113281 20.67113281 -0.0625 19.8125 C-0.05798828 18.96751953 -0.05347656 18.12253906 -0.04882812 17.25195312 C-0.03705403 15.16793845 -0.0191189 13.08396023 0 11 C-0.99 11 -1.98 11 -3 11 C-3 10.01 -3 9.02 -3 8 C-2.01 8 -1.02 8 0 8 C0 5.36 0 2.72 0 0 Z " fill="#D9BC1E" transform="translate(176,202)"/>
<path d="M0 0 C3.125 1.3125 3.125 1.3125 5 3 C5 3.99 5 4.98 5 6 C4.01 6.33 3.02 6.66 2 7 C2 6.34 2 5.68 2 5 C-4.83312645 3.57918538 -4.83312645 3.57918538 -11.125 5.9375 C-13.51339365 9.83854296 -13.9341311 12.54491324 -13 17 C-11.76546291 20.14744519 -11.76546291 20.14744519 -9 22 C-5.05671884 22.68736094 -1.45513283 22.73547475 2.15625 20.91015625 C2.7646875 20.60980469 3.373125 20.30945313 4 20 C4.66 20.33 5.32 20.66 6 21 C5 24 5 24 2.4375 25.6875 C-1.60448121 27.23080192 -4.7338376 27.75786118 -9 27 C-12.65910484 25.20496744 -14.54823878 23.64752442 -16.875 20.3125 C-18.32249593 16.05042864 -18.9774477 12.44084507 -18 8 C-13.36201898 0.38349907 -8.57969437 -0.76772775 0 0 Z " fill="#ECC711" transform="translate(259,328)"/>
<path d="M0 0 C3.125 1.3125 3.125 1.3125 5 3 C5 3.99 5 4.98 5 6 C4.01 6.33 3.02 6.66 2 7 C2 6.34 2 5.68 2 5 C-4.83312645 3.57918538 -4.83312645 3.57918538 -11.125 5.9375 C-13.51339365 9.83854296 -13.9341311 12.54491324 -13 17 C-11.76546291 20.14744519 -11.76546291 20.14744519 -9 22 C-5.05671884 22.68736094 -1.45513283 22.73547475 2.15625 20.91015625 C2.7646875 20.60980469 3.373125 20.30945313 4 20 C4.66 20.33 5.32 20.66 6 21 C5 24 5 24 2.4375 25.6875 C-1.60448121 27.23080192 -4.7338376 27.75786118 -9 27 C-12.65910484 25.20496744 -14.54823878 23.64752442 -16.875 20.3125 C-18.32249593 16.05042864 -18.9774477 12.44084507 -18 8 C-13.36201898 0.38349907 -8.57969437 -0.76772775 0 0 Z " fill="#ECC711" transform="translate(160,328)"/>
<path d="M0 0 C0.33 1.32 0.66 2.64 1 4 C-1.31 4.33 -3.62 4.66 -6 5 C-6.66 6.98 -7.32 8.96 -8 11 C-5.36 11 -2.72 11 0 11 C0 12.32 0 13.64 0 15 C-2.64 15 -5.28 15 -8 15 C-8 22.59 -8 30.18 -8 38 C-9.32 38 -10.64 38 -12 38 C-12 30.08 -12 22.16 -12 14 C-12.99 14 -13.98 14 -15 14 C-15 13.01 -15 12.02 -15 11 C-14.01 11 -13.02 11 -12 11 C-12.103125 10.113125 -12.20625 9.22625 -12.3125 8.3125 C-12 5 -12 5 -9.9375 2.125 C-6.34962488 -0.47048413 -4.3322929 -0.4247346 0 0 Z " fill="#ECC711" transform="translate(379,199)"/>
<path d="M0 0 C2.28125 1.01953125 2.28125 1.01953125 4 2 C4 2.99 4 3.98 4 5 C3.319375 4.835 2.63875 4.67 1.9375 4.5 C-1.4164822 3.92910941 -4.60389805 3.93340977 -8 4 C-8.33 5.32 -8.66 6.64 -9 8 C-8.40832031 8.24234375 -7.81664062 8.4846875 -7.20703125 8.734375 C2.03770063 12.65546846 2.03770063 12.65546846 5 16 C5.625 19.5 5.625 19.5 5 23 C2.8535008 25.70043447 1.26947214 26.79798635 -2.16015625 27.34375 C-6.82628018 27.53070655 -10.34379586 27.18443586 -14 24 C-14 23.01 -14 22.02 -14 21 C-12.9790625 21.2165625 -12.9790625 21.2165625 -11.9375 21.4375 C-5.17212933 23.18240295 -5.17212933 23.18240295 1 21 C0.92163353 19.04279595 0.92163353 19.04279595 0 17 C-2.47231328 15.70724212 -2.47231328 15.70724212 -5.4375 14.875 C-10.8247619 13.1752381 -10.8247619 13.1752381 -13 11 C-13.67276051 3.93601463 -13.67276051 3.93601463 -11.5625 1 C-7.75259344 -0.48679281 -4.03835464 -0.54745301 0 0 Z " fill="#F0C90E" transform="translate(260,269)"/>
<path d="M0 0 C1.32 0 2.64 0 4 0 C4 2.64 4 5.28 4 8 C6.64 8 9.28 8 12 8 C12 9.32 12 10.64 12 12 C9.36 12 6.72 12 4 12 C4.33 17.94 4.66 23.88 5 30 C7.31 30.33 9.62 30.66 12 31 C11.67 32.32 11.34 33.64 11 35 C4.75762195 35.48018293 4.75762195 35.48018293 1.78125 33.59375 C-0.93706622 29.63550007 -0.42966897 25.9283035 -0.25 21.25 C-0.23195313 20.36183594 -0.21390625 19.47367188 -0.1953125 18.55859375 C-0.14827374 16.37129152 -0.08257009 14.18620184 0 12 C-1.32 12 -2.64 12 -4 12 C-4 10.68 -4 9.36 -4 8 C-2.68 8 -1.36 8 0 8 C0 5.36 0 2.72 0 0 Z " fill="#EDC810" transform="translate(302,202)"/>
<path d="M0 0 C1.32 0 2.64 0 4 0 C4 2.64 4 5.28 4 8 C6.64 8 9.28 8 12 8 C12 9.32 12 10.64 12 12 C9.36 12 6.72 12 4 12 C4.33 17.94 4.66 23.88 5 30 C7.31 30.33 9.62 30.66 12 31 C12 31.99 12 32.98 12 34 C9.15916359 35.42041821 7.14522722 35.31452272 4 35 C1.8203125 33.62109375 1.8203125 33.62109375 0 31 C-0.49454012 27.57126446 -0.3758107 24.2049555 -0.25 20.75 C-0.23195313 19.81414062 -0.21390625 18.87828125 -0.1953125 17.9140625 C-0.14825673 15.60832985 -0.08253713 13.30469055 0 11 C-1.32 11 -2.64 11 -4 11 C-4 10.01 -4 9.02 -4 8 C-2.68 8 -1.36 8 0 8 C0 5.36 0 2.72 0 0 Z " fill="#EBC612" transform="translate(127,261)"/>
<path d="M0 0 C1.32 0 2.64 0 4 0 C4 2.64 4 5.28 4 8 C6.64 8 9.28 8 12 8 C12 8.99 12 9.98 12 11 C9.36 11 6.72 11 4 11 C4.33 16.94 4.66 22.88 5 29 C7.31 29.66 9.62 30.32 12 31 C11.67 32.32 11.34 33.64 11 35 C4.77293935 35.47900467 4.77293935 35.47900467 1.78125 33.625 C-0.99246547 29.5374193 -0.42528283 25.56353626 -0.25 20.75 C-0.23195313 19.81414062 -0.21390625 18.87828125 -0.1953125 17.9140625 C-0.14825673 15.60832985 -0.08253713 13.30469055 0 11 C-0.99 11 -1.98 11 -3 11 C-3 10.01 -3 9.02 -3 8 C-2.01 8 -1.02 8 0 8 C0 5.36 0 2.72 0 0 Z " fill="#ECC711" transform="translate(272,261)"/>
<path d="M0 0 C1.32 0 2.64 0 4 0 C4.33 1.32 4.66 2.64 5 4 C5.721875 3.34 6.44375 2.68 7.1875 2 C10.21597933 -0.1535853 11.39703406 -0.41176754 15 0 C15 1.32 15 2.64 15 4 C14.071875 4.268125 13.14375 4.53625 12.1875 4.8125 C8.42752157 6.21327628 6.77426912 7.45146176 5 11 C4.7677354 13.71262116 4.58063765 16.40773126 4.4375 19.125 C4.39431641 19.87910156 4.35113281 20.63320313 4.30664062 21.41015625 C4.2005168 23.27321888 4.09974999 25.13658524 4 27 C2.68 27 1.36 27 0 27 C0 18.09 0 9.18 0 0 Z " fill="#ECC711" transform="translate(106,269)"/>
<path d="M0 0 C1.16015625 0.02320313 1.16015625 0.02320313 2.34375 0.046875 C4.5 0.25 4.5 0.25 7.5 1.25 C7.75 3.5 7.75 3.5 7.5 6.25 C4.77720589 9.51735294 2.88516374 11.09943872 -1.375 11.5625 C-4.5 11.25 -4.5 11.25 -6.9375 9.5 C-8.5 7.25 -8.5 7.25 -8.4375 5.1875 C-6.45705204 1.09457422 -4.53397745 -0.15113258 0 0 Z " fill="#335E8E" transform="translate(137.5,222.75)"/>
<path d="M0 0 C8.00826446 -0.78512397 8.00826446 -0.78512397 12 2.375 C14.61289825 5.80442896 15.12438966 7.34643436 15.09765625 11.5703125 C15.09443359 12.46621094 15.09121094 13.36210937 15.08789062 14.28515625 C15.07951172 15.22230469 15.07113281 16.15945313 15.0625 17.125 C15.05798828 18.06988281 15.05347656 19.01476562 15.04882812 19.98828125 C15.03702357 22.32558387 15.02055759 24.66276061 15 27 C13.68 27 12.36 27 11 27 C10.98598145 26.16807129 10.98598145 26.16807129 10.97167969 25.31933594 C10.91784278 22.79533519 10.83422746 20.27316186 10.75 17.75 C10.73582031 16.87730469 10.72164062 16.00460937 10.70703125 15.10546875 C10.51846317 9.92615336 10.51846317 9.92615336 8.21875 5.375 C5.64935158 3.78269675 4.67288157 3.66542369 1.75 4.25 C-0.10625 4.62125 -0.10625 4.62125 -2 5 C-1.34 3.35 -0.68 1.7 0 0 Z " fill="#EDC810" transform="translate(153,269)"/>
<path d="M0 0 C0.66 0.33 1.32 0.66 2 1 C1.51834131 7.38197767 1.51834131 7.38197767 -0.625 9.9375 C-3.93237046 11.4171131 -6.42006868 11.39053796 -10 11 C-11.9375 9.8125 -11.9375 9.8125 -13 8 C-13.4375 5.5 -13.4375 5.5 -13 3 C-9.7541657 -1.09257368 -4.78158917 -0.48000509 0 0 Z " fill="#2F5C91" transform="translate(93,282)"/>
<path d="M0 0 C0 1.32 0 2.64 0 4 C-1.11375 4.433125 -2.2275 4.86625 -3.375 5.3125 C-7.17512334 6.69911119 -7.17512334 6.69911119 -9 10 C-9.30066154 12.75417318 -9.50925299 15.42645147 -9.625 18.1875 C-9.66367188 18.93708984 -9.70234375 19.68667969 -9.7421875 20.45898438 C-9.83628216 22.30559199 -9.91922319 24.1527619 -10 26 C-11.32 26.33 -12.64 26.66 -14 27 C-14 18.42 -14 9.84 -14 1 C-13.01 1 -12.02 1 -11 1 C-10.67 2.65 -10.34 4.3 -10 6 C-9.38125 5.195625 -8.7625 4.39125 -8.125 3.5625 C-5.17380625 0.00370753 -4.73499494 0 0 0 Z " fill="#EDC810" transform="translate(170,210)"/>
<path d="M0 0 C1.65 0 3.3 0 5 0 C5 8.58 5 17.16 5 26 C3.68 26.33 2.36 26.66 1 27 C0 26 0 26 -0.11352539 23.49975586 C-0.10828857 22.41573486 -0.10305176 21.33171387 -0.09765625 20.21484375 C-0.09443359 19.04501953 -0.09121094 17.87519531 -0.08789062 16.66992188 C-0.07951172 15.43822266 -0.07113281 14.20652344 -0.0625 12.9375 C-0.05798828 11.70193359 -0.05347656 10.46636719 -0.04882812 9.19335938 C-0.03699608 6.12885883 -0.02051173 3.06445279 0 0 Z " fill="#CEB625" transform="translate(171,328)"/>
<path d="M0 0 C1.32 0 2.64 0 4 0 C4.33 0.99 4.66 1.98 5 3 C6.32 2.34 7.64 1.68 9 1 C8.67 2.32 8.34 3.64 8 5 C7.34 5 6.68 5 6 5 C5.2204542 7.80747455 4.8289851 10.42029808 4.68359375 13.328125 C4.64169922 14.12734375 4.59980469 14.9265625 4.55664062 15.75 C4.49766602 16.9875 4.49766602 16.9875 4.4375 18.25 C4.39431641 19.09046875 4.35113281 19.9309375 4.30664062 20.796875 C4.20091457 22.86440671 4.09998705 24.93218281 4 27 C2.68 26.67 1.36 26.34 0 26 C0 17.42 0 8.84 0 0 Z " fill="#DFC01A" transform="translate(318,269)"/>
<path d="M0 0 C1.32 0 2.64 0 4 0 C4.33 0.99 4.66 1.98 5 3 C6.32 2.34 7.64 1.68 9 1 C8.67 2.32 8.34 3.64 8 5 C7.34 5 6.68 5 6 5 C5.2204542 7.80747455 4.8289851 10.42029808 4.68359375 13.328125 C4.64169922 14.12734375 4.59980469 14.9265625 4.55664062 15.75 C4.49766602 16.9875 4.49766602 16.9875 4.4375 18.25 C4.39431641 19.09046875 4.35113281 19.9309375 4.30664062 20.796875 C4.20091457 22.86440671 4.09998705 24.93218281 4 27 C2.68 26.67 1.36 26.34 0 26 C0 17.42 0 8.84 0 0 Z " fill="#DFC01A" transform="translate(194,210)"/>
<path d="M0 0 C4.01556315 0.83657566 5.51884918 2.41409894 8 5.625 C8 6.945 8 8.265 8 9.625 C2.39 9.625 -3.22 9.625 -9 9.625 C-7.67747231 4.33488925 -5.53450979 1.15302287 0 0 Z " fill="#335E8E" transform="translate(77,212.375)"/>
<path d="M0 0 C3.81100667 0.62220517 5.41956053 1.70603542 8.0625 4.5 C8.3925 6.15 8.7225 7.8 9.0625 9.5 C3.4525 9.5 -2.1575 9.5 -7.9375 9.5 C-6.81681115 3.89655576 -5.89358669 1.00316369 0 0 Z " fill="#335E8E" transform="translate(193.9375,330.5)"/>
<path d="M0 0 C3.81100667 0.62220517 5.41956053 1.70603542 8.0625 4.5 C8.3925 6.15 8.7225 7.8 9.0625 9.5 C3.4525 9.5 -2.1575 9.5 -7.9375 9.5 C-6.81681115 3.89655576 -5.89358669 1.00316369 0 0 Z " fill="#335E8E" transform="translate(299.9375,271.5)"/>
<path d="M0 0 C3.65509878 0.6412454 4.21040547 0.8291835 6.5 3.4375 C8.5625 6.625 8.5625 6.625 8.5625 9.625 C2.9525 9.625 -2.6575 9.625 -8.4375 9.625 C-7.22442779 3.55963894 -6.2418036 1.13487338 0 0 Z " fill="#315D8F" transform="translate(280.4375,330.375)"/>
<path d="M0 0 C3.65509878 0.6412454 4.21040547 0.8291835 6.5 3.4375 C8.5625 6.625 8.5625 6.625 8.5625 9.625 C2.9525 9.625 -2.6575 9.625 -8.4375 9.625 C-7.22442779 3.55963894 -6.2418036 1.13487338 0 0 Z " fill="#315D8F" transform="translate(252.4375,212.375)"/>
<path d="M0 0 C1.32 0 2.64 0 4 0 C4 1.32 4 2.64 4 4 C1.69 4.66 -0.62 5.32 -3 6 C-2 4 -1 2 0 0 Z " fill="#F8CE08" transform="translate(166,210)"/>
<path d="M0 0 C1.65 0 3.3 0 5 0 C5 1.32 5 2.64 5 4 C3.35 4 1.7 4 0 4 C0 2.68 0 1.36 0 0 Z " fill="#E7C414" transform="translate(171,318)"/>
</svg>
